M48
; DRILL file KiCad 10.0.6 date 2026-10-04T09:58:40
; FORMAT={-:-/ absolute / metric / decimal}
; #@! TF.CreationDate,2026-10-04T09:58:40+02:00
; #@! TF.GenerationSoftware,Kicad,Pcbnew,10.0.6
; #@! TF.FileFunction,Plated,1,2,PTH
FMAT,2
METRIC
; #@! TA.AperFunction,Plated,PTH,ComponentDrill
T1C0.700
; #@! TA.AperFunction,Plated,PTH,ComponentDrill
T2C0.714
; #@! TA.AperFunction,Plated,PTH,ComponentDrill
T3C0.800
; #@! TA.AperFunction,Plated,PTH,ComponentDrill
T4C1.000
; #@! TA.AperFunction,Plated,PTH,ComponentDrill
T5C1.200
; #@! TA.AperFunction,Plated,PTH,ComponentDrill
T6C3.200
%
G90
G05
T1
X94.031Y-61.239
X96.571Y-61.239
X115.0Y-67.6
X115.0Y-70.14
X116.6Y-74.9
X119.14Y-74.9
T2
X99.924Y-57.15
X102.464Y-54.61
X102.464Y-59.69
T3
X92.444Y-73.475
X92.484Y-70.3
X92.558Y-64.008
X92.558Y-67.183
X94.164Y-56.134
X96.164Y-56.134
X97.444Y-73.475
X97.484Y-70.3
X100.064Y-73.475
X102.718Y-64.008
X102.718Y-67.183
X105.054Y-62.357
X105.054Y-64.897
X105.054Y-67.437
X105.054Y-69.977
X105.064Y-73.475
X107.684Y-73.475
X107.725Y-58.191
X108.179Y-55.06
X110.719Y-55.06
X112.674Y-62.357
X112.674Y-64.897
X112.674Y-67.437
X112.674Y-69.977
X112.684Y-73.475
X112.725Y-58.191
X117.939Y-69.012
X119.939Y-69.012
T4
X87.1Y-57.16
X87.1Y-59.7
X87.1Y-62.24
X87.1Y-64.78
X87.1Y-67.32
X87.1Y-69.86
X87.1Y-72.4
T5
X119.536Y-59.944
X124.536Y-59.944
T6
X125.0Y-72.4
M30
