%TF.GenerationSoftware,KiCad,Pcbnew,10.0.6*%
%TF.CreationDate,2026-10-04T09:58:40+02:00*%
%TF.ProjectId,uAmp,75416d70-2e6b-4696-9361-645f70636258,3*%
%TF.SameCoordinates,Original*%
%TF.FileFunction,Copper,L2,Bot*%
%TF.FilePolarity,Positive*%
%FSLAX46Y46*%
G04 Gerber Fmt 4.6, Leading zero omitted, Abs format (unit mm)*
G04 Created by KiCad (PCBNEW 10.0.6) date 2026-10-04 09:58:40*
%MOMM*%
%LPD*%
G01*
G04 APERTURE LIST*
G04 Aperture macros list*
%AMRoundRect*
0 Rectangle with rounded corners*
0 $1 Rounding radius*
0 $2 $3 $4 $5 $6 $7 $8 $9 X,Y pos of 4 corners*
0 Add a 4 corners polygon primitive as box body*
4,1,4,$2,$3,$4,$5,$6,$7,$8,$9,$2,$3,0*
0 Add four circle primitives for the rounded corners*
1,1,$1+$1,$2,$3*
1,1,$1+$1,$4,$5*
1,1,$1+$1,$6,$7*
1,1,$1+$1,$8,$9*
0 Add four rect primitives between the rounded corners*
20,1,$1+$1,$2,$3,$4,$5,0*
20,1,$1+$1,$4,$5,$6,$7,0*
20,1,$1+$1,$6,$7,$8,$9,0*
20,1,$1+$1,$8,$9,$2,$3,0*%
G04 Aperture macros list end*
%TA.AperFunction,ComponentPad*%
%ADD10C,1.600000*%
%TD*%
%TA.AperFunction,ComponentPad*%
%ADD11R,1.600000X1.600000*%
%TD*%
%TA.AperFunction,ComponentPad*%
%ADD12O,1.600000X1.600000*%
%TD*%
%TA.AperFunction,ComponentPad*%
%ADD13C,6.400000*%
%TD*%
%TA.AperFunction,ComponentPad*%
%ADD14RoundRect,0.250000X0.550000X0.550000X-0.550000X0.550000X-0.550000X-0.550000X0.550000X-0.550000X0*%
%TD*%
%TA.AperFunction,ComponentPad*%
%ADD15C,1.400000*%
%TD*%
%TA.AperFunction,ComponentPad*%
%ADD16R,2.400000X2.400000*%
%TD*%
%TA.AperFunction,ComponentPad*%
%ADD17C,2.400000*%
%TD*%
%TA.AperFunction,ComponentPad*%
%ADD18R,1.700000X1.700000*%
%TD*%
%TA.AperFunction,ComponentPad*%
%ADD19O,1.700000X1.700000*%
%TD*%
%TA.AperFunction,ComponentPad*%
%ADD20R,1.222000X1.222000*%
%TD*%
%TA.AperFunction,ComponentPad*%
%ADD21C,1.222000*%
%TD*%
%TA.AperFunction,Conductor*%
%ADD22C,1.000000*%
%TD*%
G04 APERTURE END LIST*
D10*
%TO.P,C2,1*%
%TO.N,-In*%
X97484315Y-70300000D03*
%TO.P,C2,2*%
%TO.N,Net-(C1-Pad1)*%
X92484315Y-70300000D03*
%TD*%
%TO.P,C3,1*%
%TO.N,Net-(C1-Pad1)*%
X92444315Y-73475000D03*
%TO.P,C3,2*%
%TO.N,GND*%
X97444315Y-73475000D03*
%TD*%
D11*
%TO.P,U1,1,RG1*%
%TO.N,Net-(U1-RG1)*%
X105054400Y-62357000D03*
D12*
%TO.P,U1,2,-*%
%TO.N,-In*%
X105054400Y-64897000D03*
%TO.P,U1,3,+*%
%TO.N,+In*%
X105054400Y-67437000D03*
%TO.P,U1,4,V-*%
%TO.N,/-15V_F*%
X105054400Y-69977000D03*
%TO.P,U1,5,REF*%
%TO.N,GND*%
X112674400Y-69977000D03*
%TO.P,U1,6*%
%TO.N,Net-(R3-Pad1)*%
X112674400Y-67437000D03*
%TO.P,U1,7,V+*%
%TO.N,/+15V_F*%
X112674400Y-64897000D03*
%TO.P,U1,8,RG2*%
%TO.N,Net-(U1-RG2)*%
X112674400Y-62357000D03*
%TD*%
D13*
%TO.P,H4,1,1*%
%TO.N,GND*%
X125000000Y-72400000D03*
%TD*%
D14*
%TO.P,C8,1*%
%TO.N,GND*%
X119938800Y-69011800D03*
D10*
%TO.P,C8,2*%
%TO.N,/-15V_F*%
X117938800Y-69011800D03*
%TD*%
%TO.P,R6,1*%
%TO.N,Net-(R6-Pad1)*%
X108178600Y-55060000D03*
%TO.P,R6,2*%
%TO.N,Net-(C6-Pad1)*%
X110718600Y-55060000D03*
%TD*%
D15*
%TO.P,R5,1*%
%TO.N,-15V*%
X116600000Y-74900000D03*
%TO.P,R5,2*%
%TO.N,/-15V_F*%
X119140000Y-74900000D03*
%TD*%
D10*
%TO.P,R2,1*%
%TO.N,GND*%
X92557600Y-67183000D03*
D12*
%TO.P,R2,2*%
%TO.N,+In*%
X102717600Y-67183000D03*
%TD*%
D16*
%TO.P,C6,1*%
%TO.N,Net-(C6-Pad1)*%
X124536200Y-59944000D03*
D17*
%TO.P,C6,2*%
%TO.N,Net-(U1-RG2)*%
X119536200Y-59944000D03*
%TD*%
D10*
%TO.P,C4,1*%
%TO.N,GND*%
X112684315Y-73475000D03*
%TO.P,C4,2*%
%TO.N,/-15V_F*%
X107684315Y-73475000D03*
%TD*%
D15*
%TO.P,R3,1*%
%TO.N,Net-(R3-Pad1)*%
X115000000Y-67600000D03*
%TO.P,R3,2*%
%TO.N,Out*%
X115000000Y-70140000D03*
%TD*%
D10*
%TO.P,R1,1*%
%TO.N,GND*%
X92557600Y-64008000D03*
D12*
%TO.P,R1,2*%
%TO.N,-In*%
X102717600Y-64008000D03*
%TD*%
D10*
%TO.P,C1,1*%
%TO.N,Net-(C1-Pad1)*%
X100064315Y-73475000D03*
%TO.P,C1,2*%
%TO.N,+In*%
X105064315Y-73475000D03*
%TD*%
D15*
%TO.P,R4,1*%
%TO.N,+15V*%
X94030800Y-61239400D03*
%TO.P,R4,2*%
%TO.N,/+15V_F*%
X96570800Y-61239400D03*
%TD*%
D18*
%TO.P,J1,1,Pin_1*%
%TO.N,+In*%
X87100000Y-72400000D03*
D19*
%TO.P,J1,2,Pin_2*%
%TO.N,-In*%
X87100000Y-69860000D03*
%TO.P,J1,3,Pin_3*%
%TO.N,GND*%
X87100000Y-67320000D03*
%TO.P,J1,4,Pin_4*%
%TO.N,-15V*%
X87100000Y-64780000D03*
%TO.P,J1,5,Pin_5*%
%TO.N,+15V*%
X87100000Y-62240000D03*
%TO.P,J1,6,Pin_6*%
%TO.N,GND*%
X87100000Y-59700000D03*
%TO.P,J1,7,Pin_7*%
%TO.N,Out*%
X87100000Y-57160000D03*
%TD*%
D14*
%TO.P,C7,1*%
%TO.N,/+15V_F*%
X96164400Y-56134000D03*
D10*
%TO.P,C7,2*%
%TO.N,GND*%
X94164400Y-56134000D03*
%TD*%
%TO.P,C5,1*%
%TO.N,GND*%
X112725200Y-58191400D03*
%TO.P,C5,2*%
%TO.N,/+15V_F*%
X107725200Y-58191400D03*
%TD*%
D20*
%TO.P,RV1,1,1*%
%TO.N,Net-(U1-RG1)*%
X102463600Y-59690000D03*
D21*
%TO.P,RV1,2,2*%
X99923600Y-57150000D03*
%TO.P,RV1,3,3*%
%TO.N,Net-(R6-Pad1)*%
X102463600Y-54610000D03*
%TD*%
%TO.N,/-15V_F*%
D22*
X117938800Y-69011800D02*
X117938800Y-69395973D01*
X115712555Y-71622218D02*
X110365209Y-71622218D01*
X108950996Y-72208004D02*
X107684000Y-73475000D01*
X117353014Y-70810186D02*
X117126768Y-71036432D01*
X117938800Y-69395973D02*
G75*
G02*
X117353028Y-70810200I-2000000J-27D01*
G01*
X110365209Y-71622218D02*
G75*
G03*
X108950995Y-72208003I-9J-1999982D01*
G01*
X115712555Y-71622218D02*
G75*
G03*
X117126794Y-71036458I45J2000018D01*
G01*
%TO.N,-15V*%
X116415786Y-75084214D02*
X116600000Y-74900000D01*
X105489000Y-75670000D02*
X115001573Y-75670000D01*
X85424315Y-73195888D02*
X85424315Y-67284112D01*
X86010101Y-65869899D02*
X87100000Y-64780000D01*
X86484214Y-75084214D02*
X86010101Y-74610101D01*
X105489315Y-75670000D02*
X87898427Y-75670000D01*
X116415786Y-75084214D02*
G75*
G02*
X115001573Y-75669981I-1414186J1414214D01*
G01*
X85424315Y-67284112D02*
G75*
G02*
X86010098Y-65869896I1999985J12D01*
G01*
X85424315Y-73195888D02*
G75*
G03*
X86010098Y-74610104I1999985J-12D01*
G01*
X86484214Y-75084214D02*
G75*
G03*
X87898427Y-75669981I1414186J1414214D01*
G01*
%TD*%
%TA.AperFunction,Conductor*%
%TO.N,GND*%
G36*
X124843876Y-52886717D02*
G01*
X124844195Y-52886770D01*
X124864200Y-52886770D01*
X124885810Y-52886770D01*
X124891629Y-52886904D01*
X125281927Y-52904949D01*
X125293515Y-52906023D01*
X125381729Y-52918328D01*
X125677604Y-52959600D01*
X125689015Y-52961734D01*
X126066519Y-53050522D01*
X126077707Y-53053705D01*
X126445407Y-53176946D01*
X126456239Y-53181142D01*
X126811007Y-53337787D01*
X126821415Y-53342970D01*
X127160192Y-53531668D01*
X127170086Y-53537793D01*
X127490030Y-53756959D01*
X127499296Y-53763956D01*
X127752429Y-53974156D01*
X127797652Y-54011709D01*
X127806252Y-54019550D01*
X128080450Y-54293748D01*
X128088291Y-54302348D01*
X128336041Y-54600701D01*
X128343043Y-54609973D01*
X128403416Y-54698107D01*
X128562206Y-54929913D01*
X128568332Y-54939808D01*
X128757028Y-55278581D01*
X128762216Y-55288999D01*
X128918854Y-55643751D01*
X128923058Y-55654603D01*
X129046294Y-56022290D01*
X129049479Y-56033484D01*
X129138263Y-56410969D01*
X129140402Y-56422410D01*
X129193977Y-56806484D01*
X129195051Y-56818072D01*
X129213097Y-57208383D01*
X129213231Y-57214202D01*
X129213231Y-57253803D01*
X129213554Y-57255802D01*
X129324470Y-72396667D01*
X129324339Y-72403409D01*
X129306317Y-72793199D01*
X129305243Y-72804787D01*
X129251668Y-73188862D01*
X129249529Y-73200303D01*
X129160745Y-73577788D01*
X129157560Y-73588982D01*
X129034324Y-73956669D01*
X129030120Y-73967521D01*
X128873482Y-74322273D01*
X128868294Y-74332691D01*
X128679598Y-74671464D01*
X128673472Y-74681359D01*
X128454315Y-75001291D01*
X128447301Y-75010579D01*
X128199557Y-75308924D01*
X128191716Y-75317524D01*
X127917518Y-75591722D01*
X127908918Y-75599563D01*
X127610573Y-75847307D01*
X127601285Y-75854321D01*
X127281353Y-76073478D01*
X127271458Y-76079604D01*
X126932685Y-76268300D01*
X126922267Y-76273488D01*
X126567515Y-76430126D01*
X126556663Y-76434330D01*
X126188976Y-76557566D01*
X126177782Y-76560751D01*
X125800297Y-76649535D01*
X125788856Y-76651674D01*
X125404782Y-76705249D01*
X125393194Y-76706323D01*
X125002895Y-76724367D01*
X124997076Y-76724501D01*
X116122387Y-76724501D01*
X116054266Y-76704499D01*
X116007773Y-76650843D01*
X115997669Y-76580569D01*
X116027163Y-76515989D01*
X116074167Y-76482093D01*
X116289423Y-76392932D01*
X116550116Y-76253589D01*
X116766684Y-76108881D01*
X116816971Y-76089198D01*
X116882991Y-76078743D01*
X117063903Y-76019961D01*
X117233392Y-75933602D01*
X117387285Y-75821792D01*
X117521792Y-75687285D01*
X117633602Y-75533392D01*
X117719961Y-75363903D01*
X117750167Y-75270937D01*
X117790241Y-75212332D01*
X117855637Y-75184695D01*
X117925594Y-75196802D01*
X117977900Y-75244808D01*
X117989833Y-75270938D01*
X118004969Y-75317524D01*
X118020039Y-75363903D01*
X118051928Y-75426488D01*
X118106400Y-75533395D01*
X118218209Y-75687287D01*
X118352712Y-75821790D01*
X118352715Y-75821792D01*
X118506608Y-75933602D01*
X118676097Y-76019961D01*
X118857009Y-76078743D01*
X119044889Y-76108500D01*
X119044892Y-76108500D01*
X119235108Y-76108500D01*
X119235111Y-76108500D01*
X119422991Y-76078743D01*
X119603903Y-76019961D01*
X119773392Y-75933602D01*
X119927285Y-75821792D01*
X120061792Y-75687285D01*
X120173602Y-75533392D01*
X120259961Y-75363903D01*
X120318743Y-75182991D01*
X120348500Y-74995111D01*
X120348500Y-74804889D01*
X120318743Y-74617009D01*
X120259961Y-74436097D01*
X120173602Y-74266608D01*
X120061792Y-74112715D01*
X120061790Y-74112712D01*
X119927287Y-73978209D01*
X119773395Y-73866400D01*
X119773394Y-73866399D01*
X119773392Y-73866398D01*
X119603903Y-73780039D01*
X119422991Y-73721257D01*
X119235111Y-73691500D01*
X119044889Y-73691500D01*
X118857009Y-73721257D01*
X118857006Y-73721257D01*
X118857005Y-73721258D01*
X118676097Y-73780039D01*
X118676095Y-73780040D01*
X118506604Y-73866400D01*
X118352712Y-73978209D01*
X118218209Y-74112712D01*
X118106400Y-74266604D01*
X118072727Y-74332691D01*
X118020039Y-74436097D01*
X117989833Y-74529062D01*
X117949759Y-74587667D01*
X117884362Y-74615304D01*
X117814406Y-74603197D01*
X117762100Y-74555191D01*
X117750167Y-74529062D01*
X117719961Y-74436097D01*
X117633602Y-74266608D01*
X117521792Y-74112715D01*
X117521790Y-74112712D01*
X117387287Y-73978209D01*
X117233395Y-73866400D01*
X117233394Y-73866399D01*
X117233392Y-73866398D01*
X117063903Y-73780039D01*
X116882991Y-73721257D01*
X116695111Y-73691500D01*
X116504889Y-73691500D01*
X116317009Y-73721257D01*
X116317006Y-73721257D01*
X116317005Y-73721258D01*
X116136097Y-73780039D01*
X116136095Y-73780040D01*
X115966604Y-73866400D01*
X115812712Y-73978209D01*
X115678209Y-74112712D01*
X115566400Y-74266604D01*
X115480037Y-74436101D01*
X115480036Y-74436103D01*
X115458339Y-74502877D01*
X115418265Y-74561482D01*
X115386725Y-74580348D01*
X115317128Y-74609176D01*
X115298324Y-74615286D01*
X115166320Y-74646977D01*
X115146793Y-74650070D01*
X115016902Y-74660293D01*
X115006502Y-74661112D01*
X114996617Y-74661500D01*
X108652504Y-74661500D01*
X108584383Y-74641498D01*
X108537890Y-74587842D01*
X108527786Y-74517568D01*
X108557280Y-74452988D01*
X108563409Y-74446405D01*
X108682378Y-74327435D01*
X108682383Y-74327430D01*
X108803444Y-74160803D01*
X108896949Y-73977290D01*
X108960595Y-73781408D01*
X108983693Y-73635568D01*
X109014104Y-73571418D01*
X109019028Y-73566204D01*
X109590848Y-72994384D01*
X109590856Y-72994378D01*
X109598030Y-72987203D01*
X109598033Y-72987202D01*
X109660622Y-72924611D01*
X109667861Y-72917919D01*
X109774886Y-72826511D01*
X109790871Y-72814897D01*
X109906629Y-72743962D01*
X109924229Y-72734994D01*
X110049661Y-72683038D01*
X110068455Y-72676931D01*
X110200461Y-72645239D01*
X110219989Y-72642147D01*
X110360279Y-72631106D01*
X110370165Y-72630718D01*
X115860344Y-72630718D01*
X115860353Y-72630718D01*
X116054085Y-72611636D01*
X116154518Y-72601745D01*
X116154520Y-72601744D01*
X116154526Y-72601744D01*
X116444442Y-72544076D01*
X116727310Y-72458269D01*
X117000405Y-72345150D01*
X117238603Y-72217831D01*
X121292000Y-72217831D01*
X121292000Y-72582168D01*
X121327708Y-72944718D01*
X121327711Y-72944738D01*
X121398782Y-73302043D01*
X121504544Y-73650694D01*
X121504545Y-73650698D01*
X121643965Y-73987286D01*
X121815708Y-74308594D01*
X122018110Y-74611510D01*
X122018121Y-74611525D01*
X122203446Y-74837343D01*
X123703367Y-73337421D01*
X123779588Y-73442330D01*
X123957670Y-73620412D01*
X124062576Y-73696631D01*
X122562655Y-75196552D01*
X122788485Y-75381886D01*
X122788491Y-75381891D01*
X123091405Y-75584291D01*
X123412713Y-75756034D01*
X123749301Y-75895454D01*
X123749305Y-75895455D01*
X124097956Y-76001217D01*
X124455261Y-76072288D01*
X124455281Y-76072291D01*
X124817831Y-76107999D01*
X124817847Y-76108000D01*
X125182153Y-76108000D01*
X125182168Y-76107999D01*
X125544718Y-76072291D01*
X125544738Y-76072288D01*
X125902043Y-76001217D01*
X126250694Y-75895455D01*
X126250698Y-75895454D01*
X126587286Y-75756034D01*
X126908594Y-75584291D01*
X127211508Y-75381891D01*
X127211514Y-75381886D01*
X127437343Y-75196552D01*
X125937422Y-73696631D01*
X126042330Y-73620412D01*
X126220412Y-73442330D01*
X126296631Y-73337422D01*
X127796552Y-74837343D01*
X127981886Y-74611514D01*
X127981891Y-74611508D01*
X128184291Y-74308594D01*
X128356034Y-73987286D01*
X128495454Y-73650698D01*
X128495455Y-73650694D01*
X128601217Y-73302043D01*
X128672288Y-72944738D01*
X128672291Y-72944718D01*
X128707999Y-72582168D01*
X128708000Y-72582152D01*
X128708000Y-72217847D01*
X128707999Y-72217831D01*
X128672291Y-71855281D01*
X128672288Y-71855261D01*
X128601217Y-71497956D01*
X128495455Y-71149305D01*
X128495454Y-71149301D01*
X128356034Y-70812713D01*
X128184291Y-70491405D01*
X127981891Y-70188491D01*
X127981886Y-70188485D01*
X127796552Y-69962655D01*
X126296631Y-71462576D01*
X126220412Y-71357670D01*
X126042330Y-71179588D01*
X125937422Y-71103367D01*
X127437343Y-69603446D01*
X127211525Y-69418121D01*
X127211510Y-69418110D01*
X126908594Y-69215708D01*
X126587286Y-69043965D01*
X126250698Y-68904545D01*
X126250694Y-68904544D01*
X125902043Y-68798782D01*
X125544738Y-68727711D01*
X125544718Y-68727708D01*
X125182168Y-68692000D01*
X124817831Y-68692000D01*
X124455281Y-68727708D01*
X124455261Y-68727711D01*
X124097956Y-68798782D01*
X123749305Y-68904544D01*
X123749301Y-68904545D01*
X123412713Y-69043965D01*
X123091405Y-69215708D01*
X122788481Y-69418115D01*
X122562655Y-69603445D01*
X122562655Y-69603446D01*
X124062577Y-71103368D01*
X123957670Y-71179588D01*
X123779588Y-71357670D01*
X123703368Y-71462577D01*
X122203446Y-69962655D01*
X122203445Y-69962655D01*
X122018115Y-70188481D01*
X121815708Y-70491405D01*
X121643965Y-70812713D01*
X121504545Y-71149301D01*
X121504544Y-71149305D01*
X121398782Y-71497956D01*
X121327711Y-71855261D01*
X121327708Y-71855281D01*
X121292000Y-72217831D01*
X117238603Y-72217831D01*
X117261098Y-72205807D01*
X117506877Y-72041582D01*
X117735376Y-71854058D01*
X117839885Y-71749549D01*
X117905965Y-71683470D01*
X117905966Y-71683467D01*
X117913141Y-71676293D01*
X117913147Y-71676285D01*
X117992867Y-71596565D01*
X117992875Y-71596559D01*
X118000049Y-71589384D01*
X118000052Y-71589383D01*
X118066131Y-71523303D01*
X118170640Y-71418794D01*
X118358164Y-71190295D01*
X118522389Y-70944516D01*
X118661732Y-70683823D01*
X118774851Y-70410728D01*
X118813484Y-70283370D01*
X118852399Y-70223989D01*
X118917241Y-70195073D01*
X118987422Y-70205804D01*
X119000207Y-70212706D01*
X119066273Y-70253456D01*
X119234478Y-70309193D01*
X119234481Y-70309194D01*
X119338283Y-70319799D01*
X119338283Y-70319800D01*
X119684800Y-70319800D01*
X119684800Y-69323486D01*
X119693194Y-69331880D01*
X119784406Y-69384541D01*
X119886139Y-69411800D01*
X119991461Y-69411800D01*
X120093194Y-69384541D01*
X120184406Y-69331880D01*
X120192800Y-69323486D01*
X120192800Y-70319800D01*
X120539317Y-70319800D01*
X120539316Y-70319799D01*
X120643118Y-70309194D01*
X120643121Y-70309193D01*
X120811325Y-70253457D01*
X120962139Y-70160434D01*
X120962145Y-70160429D01*
X121087429Y-70035145D01*
X121087434Y-70035139D01*
X121180457Y-69884325D01*
X121236193Y-69716121D01*
X121236194Y-69716118D01*
X121243947Y-69640241D01*
X121246799Y-69612316D01*
X121246800Y-69612316D01*
X121246800Y-69265800D01*
X120250486Y-69265800D01*
X120258880Y-69257406D01*
X120311541Y-69166194D01*
X120338800Y-69064461D01*
X120338800Y-68959139D01*
X120311541Y-68857406D01*
X120258880Y-68766194D01*
X120250486Y-68757800D01*
X121246800Y-68757800D01*
X121246800Y-68411283D01*
X121236194Y-68307481D01*
X121236193Y-68307478D01*
X121180457Y-68139274D01*
X121087434Y-67988460D01*
X121087429Y-67988454D01*
X120962145Y-67863170D01*
X120962139Y-67863165D01*
X120811325Y-67770142D01*
X120643121Y-67714406D01*
X120643118Y-67714405D01*
X120539316Y-67703800D01*
X120192800Y-67703800D01*
X120192800Y-68700114D01*
X120184406Y-68691720D01*
X120093194Y-68639059D01*
X119991461Y-68611800D01*
X119886139Y-68611800D01*
X119784406Y-68639059D01*
X119693194Y-68691720D01*
X119684800Y-68700114D01*
X119684800Y-67703800D01*
X119338283Y-67703800D01*
X119234481Y-67714405D01*
X119234478Y-67714406D01*
X119066274Y-67770142D01*
X118915460Y-67863165D01*
X118852070Y-67926555D01*
X118789757Y-67960580D01*
X118718942Y-67955514D01*
X118688915Y-67939395D01*
X118624609Y-67892674D01*
X118605451Y-67882912D01*
X118441090Y-67799166D01*
X118441087Y-67799165D01*
X118441085Y-67799164D01*
X118245212Y-67735521D01*
X118245210Y-67735520D01*
X118245208Y-67735520D01*
X118041781Y-67703300D01*
X117835819Y-67703300D01*
X117632392Y-67735520D01*
X117632390Y-67735520D01*
X117632387Y-67735521D01*
X117436514Y-67799164D01*
X117436508Y-67799167D01*
X117252993Y-67892673D01*
X117086367Y-68013734D01*
X117086364Y-68013736D01*
X116940736Y-68159364D01*
X116940734Y-68159367D01*
X116819673Y-68325993D01*
X116726167Y-68509508D01*
X116726164Y-68509514D01*
X116662521Y-68705387D01*
X116662520Y-68705390D01*
X116662520Y-68705392D01*
X116630300Y-68908819D01*
X116630300Y-69114781D01*
X116659943Y-69301936D01*
X116662521Y-69318212D01*
X116723733Y-69506604D01*
X116726166Y-69514090D01*
X116819671Y-69697603D01*
X116819675Y-69697610D01*
X116822259Y-69701827D01*
X116821094Y-69702540D01*
X116842861Y-69763561D01*
X116833476Y-69818960D01*
X116826028Y-69836942D01*
X116817052Y-69854557D01*
X116792943Y-69893902D01*
X116746123Y-69970305D01*
X116734501Y-69986301D01*
X116643110Y-70093306D01*
X116636394Y-70100570D01*
X116573816Y-70163148D01*
X116573813Y-70163152D01*
X116479734Y-70257231D01*
X116479726Y-70257237D01*
X116423595Y-70313369D01*
X116361283Y-70347395D01*
X116290468Y-70342330D01*
X116233632Y-70299783D01*
X116208821Y-70233263D01*
X116208500Y-70224274D01*
X116208500Y-70044892D01*
X116208500Y-70044889D01*
X116178743Y-69857009D01*
X116119961Y-69676097D01*
X116033602Y-69506608D01*
X115921792Y-69352715D01*
X115921790Y-69352712D01*
X115787287Y-69218209D01*
X115633395Y-69106400D01*
X115633394Y-69106399D01*
X115633392Y-69106398D01*
X115463903Y-69020039D01*
X115463900Y-69020038D01*
X115463898Y-69020037D01*
X115376069Y-68991500D01*
X115370937Y-68989832D01*
X115312332Y-68949759D01*
X115284695Y-68884363D01*
X115296802Y-68814406D01*
X115344808Y-68762100D01*
X115370936Y-68750167D01*
X115463903Y-68719961D01*
X115633392Y-68633602D01*
X115787285Y-68521792D01*
X115921792Y-68387285D01*
X116033602Y-68233392D01*
X116119961Y-68063903D01*
X116178743Y-67882991D01*
X116208500Y-67695111D01*
X116208500Y-67504889D01*
X116178743Y-67317009D01*
X116119961Y-67136097D01*
X116033602Y-66966608D01*
X115968282Y-66876703D01*
X115921790Y-66812712D01*
X115787287Y-66678209D01*
X115633395Y-66566400D01*
X115633394Y-66566399D01*
X115633392Y-66566398D01*
X115463903Y-66480039D01*
X115282991Y-66421257D01*
X115095111Y-66391500D01*
X114904889Y-66391500D01*
X114717009Y-66421257D01*
X114717006Y-66421257D01*
X114717005Y-66421258D01*
X114536097Y-66480039D01*
X114536095Y-66480040D01*
X114366604Y-66566400D01*
X114212712Y-66678209D01*
X114078207Y-66812714D01*
X114050157Y-66851323D01*
X113993935Y-66894676D01*
X113923199Y-66900751D01*
X113860407Y-66867619D01*
X113835957Y-66834467D01*
X113793529Y-66751197D01*
X113672468Y-66584570D01*
X113672465Y-66584567D01*
X113672463Y-66584564D01*
X113526835Y-66438936D01*
X113526832Y-66438934D01*
X113526830Y-66438932D01*
X113360203Y-66317871D01*
X113284434Y-66279265D01*
X113232822Y-66230519D01*
X113215756Y-66161604D01*
X113238657Y-66094402D01*
X113284434Y-66054735D01*
X113360203Y-66016129D01*
X113526830Y-65895068D01*
X113672468Y-65749430D01*
X113793529Y-65582803D01*
X113887034Y-65399290D01*
X113950680Y-65203408D01*
X113982900Y-64999981D01*
X113982900Y-64794019D01*
X113950680Y-64590592D01*
X113887034Y-64394710D01*
X113793529Y-64211197D01*
X113672468Y-64044570D01*
X113672465Y-64044567D01*
X113672463Y-64044564D01*
X113526835Y-63898936D01*
X113526832Y-63898934D01*
X113526830Y-63898932D01*
X113360203Y-63777871D01*
X113284434Y-63739265D01*
X113232822Y-63690519D01*
X113215756Y-63621604D01*
X113238657Y-63554402D01*
X113284434Y-63514735D01*
X113360203Y-63476129D01*
X113526830Y-63355068D01*
X113672468Y-63209430D01*
X113793529Y-63042803D01*
X113887034Y-62859290D01*
X113950680Y-62663408D01*
X113982900Y-62459981D01*
X113982900Y-62254019D01*
X113950680Y-62050592D01*
X113887034Y-61854710D01*
X113793529Y-61671197D01*
X113672468Y-61504570D01*
X113672465Y-61504567D01*
X113672463Y-61504564D01*
X113526835Y-61358936D01*
X113526832Y-61358934D01*
X113526830Y-61358932D01*
X113360203Y-61237871D01*
X113176690Y-61144366D01*
X113176687Y-61144365D01*
X113176685Y-61144364D01*
X112980812Y-61080721D01*
X112980810Y-61080720D01*
X112980808Y-61080720D01*
X112777381Y-61048500D01*
X112571419Y-61048500D01*
X112367992Y-61080720D01*
X112367990Y-61080720D01*
X112367987Y-61080721D01*
X112172114Y-61144364D01*
X112172108Y-61144367D01*
X111988593Y-61237873D01*
X111821967Y-61358934D01*
X111821964Y-61358936D01*
X111676336Y-61504564D01*
X111676334Y-61504567D01*
X111555273Y-61671193D01*
X111461767Y-61854708D01*
X111461764Y-61854714D01*
X111398121Y-62050587D01*
X111398120Y-62050590D01*
X111398120Y-62050592D01*
X111365900Y-62254019D01*
X111365900Y-62459981D01*
X111398120Y-62663408D01*
X111398121Y-62663412D01*
X111440995Y-62795366D01*
X111461766Y-62859290D01*
X111555271Y-63042803D01*
X111676332Y-63209430D01*
X111676334Y-63209432D01*
X111676336Y-63209435D01*
X111821964Y-63355063D01*
X111821967Y-63355065D01*
X111821970Y-63355068D01*
X111988597Y-63476129D01*
X112064362Y-63514733D01*
X112115977Y-63563482D01*
X112133043Y-63632397D01*
X112110142Y-63699598D01*
X112064363Y-63739266D01*
X112018972Y-63762394D01*
X111988593Y-63777873D01*
X111821967Y-63898934D01*
X111821964Y-63898936D01*
X111676336Y-64044564D01*
X111676334Y-64044567D01*
X111555273Y-64211193D01*
X111461767Y-64394708D01*
X111461764Y-64394714D01*
X111398121Y-64590587D01*
X111398120Y-64590590D01*
X111398120Y-64590592D01*
X111365900Y-64794019D01*
X111365900Y-64999981D01*
X111398120Y-65203408D01*
X111398121Y-65203412D01*
X111429986Y-65301483D01*
X111461766Y-65399290D01*
X111555271Y-65582803D01*
X111676332Y-65749430D01*
X111676334Y-65749432D01*
X111676336Y-65749435D01*
X111821964Y-65895063D01*
X111821967Y-65895065D01*
X111821970Y-65895068D01*
X111988597Y-66016129D01*
X112064362Y-66054733D01*
X112115977Y-66103482D01*
X112133043Y-66172397D01*
X112110142Y-66239598D01*
X112064363Y-66279266D01*
X111995433Y-66314387D01*
X111988593Y-66317873D01*
X111821967Y-66438934D01*
X111821964Y-66438936D01*
X111676336Y-66584564D01*
X111676334Y-66584567D01*
X111555273Y-66751193D01*
X111461767Y-66934708D01*
X111461764Y-66934714D01*
X111398121Y-67130587D01*
X111398120Y-67130590D01*
X111398120Y-67130592D01*
X111365900Y-67334019D01*
X111365900Y-67539981D01*
X111396871Y-67735520D01*
X111398121Y-67743412D01*
X111446619Y-67892674D01*
X111461766Y-67939290D01*
X111555271Y-68122803D01*
X111676332Y-68289430D01*
X111676334Y-68289432D01*
X111676336Y-68289435D01*
X111821964Y-68435063D01*
X111821967Y-68435065D01*
X111821970Y-68435068D01*
X111988597Y-68556129D01*
X112064911Y-68595013D01*
X112116526Y-68643760D01*
X112133592Y-68712675D01*
X112110692Y-68779876D01*
X112064913Y-68819545D01*
X111988855Y-68858299D01*
X111822292Y-68979315D01*
X111822289Y-68979317D01*
X111676717Y-69124889D01*
X111676715Y-69124892D01*
X111555700Y-69291454D01*
X111462229Y-69474900D01*
X111462226Y-69474906D01*
X111398608Y-69670704D01*
X111390326Y-69723000D01*
X112362714Y-69723000D01*
X112354320Y-69731394D01*
X112301659Y-69822606D01*
X112274400Y-69924339D01*
X112274400Y-70029661D01*
X112301659Y-70131394D01*
X112354320Y-70222606D01*
X112362714Y-70231000D01*
X111390326Y-70231000D01*
X111398608Y-70283295D01*
X111452378Y-70448782D01*
X111454406Y-70519750D01*
X111417743Y-70580547D01*
X111354031Y-70611873D01*
X111332545Y-70613718D01*
X110217404Y-70613718D01*
X109923245Y-70642690D01*
X109716459Y-70683823D01*
X109633322Y-70700360D01*
X109491888Y-70743263D01*
X109350453Y-70786167D01*
X109350449Y-70786168D01*
X109077358Y-70899286D01*
X108816663Y-71038630D01*
X108570893Y-71202849D01*
X108570878Y-71202860D01*
X108342393Y-71390372D01*
X108342374Y-71390390D01*
X108237879Y-71494886D01*
X108237879Y-71494887D01*
X108171799Y-71560966D01*
X108171796Y-71560969D01*
X107878710Y-71854055D01*
X107592379Y-72140386D01*
X107530067Y-72174411D01*
X107522996Y-72175738D01*
X107377907Y-72198719D01*
X107182029Y-72262364D01*
X107182023Y-72262367D01*
X106998508Y-72355873D01*
X106831882Y-72476934D01*
X106831879Y-72476936D01*
X106686251Y-72622564D01*
X106686249Y-72622567D01*
X106565188Y-72789193D01*
X106486582Y-72943466D01*
X106437833Y-72995081D01*
X106368919Y-73012147D01*
X106301717Y-72989246D01*
X106262048Y-72943466D01*
X106183444Y-72789197D01*
X106062383Y-72622570D01*
X106062380Y-72622567D01*
X106062378Y-72622564D01*
X105916750Y-72476936D01*
X105916747Y-72476934D01*
X105916745Y-72476932D01*
X105777097Y-72375472D01*
X105750121Y-72355873D01*
X105750120Y-72355872D01*
X105750118Y-72355871D01*
X105566605Y-72262366D01*
X105566602Y-72262365D01*
X105566600Y-72262364D01*
X105370727Y-72198721D01*
X105370725Y-72198720D01*
X105370723Y-72198720D01*
X105167296Y-72166500D01*
X104961334Y-72166500D01*
X104757907Y-72198720D01*
X104757905Y-72198720D01*
X104757902Y-72198721D01*
X104562029Y-72262364D01*
X104562023Y-72262367D01*
X104378508Y-72355873D01*
X104211882Y-72476934D01*
X104211879Y-72476936D01*
X104066251Y-72622564D01*
X104066249Y-72622567D01*
X103945188Y-72789193D01*
X103851682Y-72972708D01*
X103851679Y-72972714D01*
X103788036Y-73168587D01*
X103788035Y-73168590D01*
X103788035Y-73168592D01*
X103755815Y-73372019D01*
X103755815Y-73577981D01*
X103788035Y-73781408D01*
X103788036Y-73781412D01*
X103848506Y-73967521D01*
X103851681Y-73977290D01*
X103945186Y-74160803D01*
X104066247Y-74327430D01*
X104066249Y-74327432D01*
X104066251Y-74327435D01*
X104185221Y-74446405D01*
X104219247Y-74508717D01*
X104214182Y-74579532D01*
X104171635Y-74636368D01*
X104105115Y-74661179D01*
X104096126Y-74661500D01*
X101032504Y-74661500D01*
X100964383Y-74641498D01*
X100917890Y-74587842D01*
X100907786Y-74517568D01*
X100937280Y-74452988D01*
X100943409Y-74446405D01*
X101062378Y-74327435D01*
X101062383Y-74327430D01*
X101183444Y-74160803D01*
X101276949Y-73977290D01*
X101340595Y-73781408D01*
X101372815Y-73577981D01*
X101372815Y-73372019D01*
X101340595Y-73168592D01*
X101276949Y-72972710D01*
X101183444Y-72789197D01*
X101062383Y-72622570D01*
X101062380Y-72622567D01*
X101062378Y-72622564D01*
X100916750Y-72476936D01*
X100916747Y-72476934D01*
X100916745Y-72476932D01*
X100777097Y-72375472D01*
X100750121Y-72355873D01*
X100750120Y-72355872D01*
X100750118Y-72355871D01*
X100566605Y-72262366D01*
X100566602Y-72262365D01*
X100566600Y-72262364D01*
X100370727Y-72198721D01*
X100370725Y-72198720D01*
X100370723Y-72198720D01*
X100167296Y-72166500D01*
X99961334Y-72166500D01*
X99757907Y-72198720D01*
X99757905Y-72198720D01*
X99757902Y-72198721D01*
X99562029Y-72262364D01*
X99562023Y-72262367D01*
X99378508Y-72355873D01*
X99211882Y-72476934D01*
X99211879Y-72476936D01*
X99066251Y-72622564D01*
X99066249Y-72622567D01*
X98945188Y-72789193D01*
X98866302Y-72944015D01*
X98817553Y-72995630D01*
X98748638Y-73012696D01*
X98681437Y-72989795D01*
X98641768Y-72944015D01*
X98563014Y-72789454D01*
X98531898Y-72746626D01*
X98531897Y-72746626D01*
X97844315Y-73434208D01*
X97844315Y-73422339D01*
X97817056Y-73320606D01*
X97764395Y-73229394D01*
X97689921Y-73154920D01*
X97598709Y-73102259D01*
X97496976Y-73075000D01*
X97485105Y-73075000D01*
X98172687Y-72387416D01*
X98129856Y-72356298D01*
X98129855Y-72356297D01*
X97946414Y-72262829D01*
X97946408Y-72262826D01*
X97750609Y-72199208D01*
X97750613Y-72199208D01*
X97547254Y-72167000D01*
X97341376Y-72167000D01*
X97138018Y-72199208D01*
X96942221Y-72262826D01*
X96942215Y-72262829D01*
X96758767Y-72356301D01*
X96715940Y-72387416D01*
X97403524Y-73075000D01*
X97391654Y-73075000D01*
X97289921Y-73102259D01*
X97198709Y-73154920D01*
X97124235Y-73229394D01*
X97071574Y-73320606D01*
X97044315Y-73422339D01*
X97044315Y-73434209D01*
X96356731Y-72746625D01*
X96325616Y-72789452D01*
X96232144Y-72972900D01*
X96232141Y-72972906D01*
X96168523Y-73168703D01*
X96136315Y-73372061D01*
X96136315Y-73577938D01*
X96168523Y-73781296D01*
X96232141Y-73977093D01*
X96232144Y-73977099D01*
X96325612Y-74160540D01*
X96325613Y-74160541D01*
X96356731Y-74203372D01*
X97044315Y-73515788D01*
X97044315Y-73527661D01*
X97071574Y-73629394D01*
X97124235Y-73720606D01*
X97198709Y-73795080D01*
X97289921Y-73847741D01*
X97391654Y-73875000D01*
X97403525Y-73875000D01*
X96702426Y-74576097D01*
X96698436Y-74595094D01*
X96648594Y-74645653D01*
X96587420Y-74661500D01*
X93412504Y-74661500D01*
X93344383Y-74641498D01*
X93297890Y-74587842D01*
X93287786Y-74517568D01*
X93317280Y-74452988D01*
X93323409Y-74446405D01*
X93442378Y-74327435D01*
X93442383Y-74327430D01*
X93563444Y-74160803D01*
X93656949Y-73977290D01*
X93720595Y-73781408D01*
X93752815Y-73577981D01*
X93752815Y-73372019D01*
X93720595Y-73168592D01*
X93656949Y-72972710D01*
X93563444Y-72789197D01*
X93442383Y-72622570D01*
X93442380Y-72622567D01*
X93442378Y-72622564D01*
X93296750Y-72476936D01*
X93296747Y-72476934D01*
X93296745Y-72476932D01*
X93157097Y-72375472D01*
X93130121Y-72355873D01*
X93130120Y-72355872D01*
X93130118Y-72355871D01*
X92946605Y-72262366D01*
X92946602Y-72262365D01*
X92946600Y-72262364D01*
X92750727Y-72198721D01*
X92750725Y-72198720D01*
X92750723Y-72198720D01*
X92547296Y-72166500D01*
X92341334Y-72166500D01*
X92137907Y-72198720D01*
X92137905Y-72198720D01*
X92137902Y-72198721D01*
X91942029Y-72262364D01*
X91942023Y-72262367D01*
X91758508Y-72355873D01*
X91591882Y-72476934D01*
X91591879Y-72476936D01*
X91446251Y-72622564D01*
X91446249Y-72622567D01*
X91325188Y-72789193D01*
X91231682Y-72972708D01*
X91231679Y-72972714D01*
X91168036Y-73168587D01*
X91168035Y-73168590D01*
X91168035Y-73168592D01*
X91135815Y-73372019D01*
X91135815Y-73577981D01*
X91168035Y-73781408D01*
X91168036Y-73781412D01*
X91228506Y-73967521D01*
X91231681Y-73977290D01*
X91325186Y-74160803D01*
X91446247Y-74327430D01*
X91446249Y-74327432D01*
X91446251Y-74327435D01*
X91565221Y-74446405D01*
X91599247Y-74508717D01*
X91594182Y-74579532D01*
X91551635Y-74636368D01*
X91485115Y-74661179D01*
X91476126Y-74661500D01*
X87903383Y-74661500D01*
X87893497Y-74661112D01*
X87882247Y-74660226D01*
X87753206Y-74650070D01*
X87733679Y-74646977D01*
X87601678Y-74615287D01*
X87582874Y-74609177D01*
X87457456Y-74557227D01*
X87439840Y-74548251D01*
X87324095Y-74477323D01*
X87308098Y-74465701D01*
X87201093Y-74374310D01*
X87193828Y-74367594D01*
X87128089Y-74301854D01*
X87128074Y-74301840D01*
X86799829Y-73973595D01*
X86765803Y-73911283D01*
X86770868Y-73840468D01*
X86813415Y-73783632D01*
X86879935Y-73758821D01*
X86888924Y-73758500D01*
X87998632Y-73758500D01*
X87998638Y-73758500D01*
X87998645Y-73758499D01*
X87998649Y-73758499D01*
X88059196Y-73751990D01*
X88059199Y-73751989D01*
X88059201Y-73751989D01*
X88196204Y-73700889D01*
X88263257Y-73650694D01*
X88313261Y-73613261D01*
X88400887Y-73496207D01*
X88400887Y-73496206D01*
X88400889Y-73496204D01*
X88451989Y-73359201D01*
X88456139Y-73320606D01*
X88458499Y-73298649D01*
X88458500Y-73298632D01*
X88458500Y-71501367D01*
X88458499Y-71501350D01*
X88451990Y-71440803D01*
X88451988Y-71440795D01*
X88400889Y-71303797D01*
X88400887Y-71303792D01*
X88313261Y-71186738D01*
X88196207Y-71099112D01*
X88196203Y-71099110D01*
X88078291Y-71055131D01*
X88021455Y-71012585D01*
X87996645Y-70946064D01*
X88011737Y-70876690D01*
X88033226Y-70847983D01*
X88136206Y-70745004D01*
X88261894Y-70572009D01*
X88358972Y-70381483D01*
X88418907Y-70197019D01*
X91175815Y-70197019D01*
X91175815Y-70402981D01*
X91208035Y-70606408D01*
X91208036Y-70606412D01*
X91266442Y-70786168D01*
X91271681Y-70802290D01*
X91365186Y-70985803D01*
X91365188Y-70985806D01*
X91395117Y-71026999D01*
X91486247Y-71152430D01*
X91486249Y-71152432D01*
X91486251Y-71152435D01*
X91631879Y-71298063D01*
X91631882Y-71298065D01*
X91631885Y-71298068D01*
X91798512Y-71419129D01*
X91982025Y-71512634D01*
X92177907Y-71576280D01*
X92381334Y-71608500D01*
X92381337Y-71608500D01*
X92587293Y-71608500D01*
X92587296Y-71608500D01*
X92790723Y-71576280D01*
X92986605Y-71512634D01*
X93170118Y-71419129D01*
X93336745Y-71298068D01*
X93482383Y-71152430D01*
X93603444Y-70985803D01*
X93696949Y-70802290D01*
X93760595Y-70606408D01*
X93792815Y-70402981D01*
X93792815Y-70197019D01*
X96175815Y-70197019D01*
X96175815Y-70402981D01*
X96208035Y-70606408D01*
X96208036Y-70606412D01*
X96266442Y-70786168D01*
X96271681Y-70802290D01*
X96365186Y-70985803D01*
X96365188Y-70985806D01*
X96395117Y-71026999D01*
X96486247Y-71152430D01*
X96486249Y-71152432D01*
X96486251Y-71152435D01*
X96631879Y-71298063D01*
X96631882Y-71298065D01*
X96631885Y-71298068D01*
X96798512Y-71419129D01*
X96982025Y-71512634D01*
X97177907Y-71576280D01*
X97381334Y-71608500D01*
X97381337Y-71608500D01*
X97587293Y-71608500D01*
X97587296Y-71608500D01*
X97790723Y-71576280D01*
X97986605Y-71512634D01*
X98170118Y-71419129D01*
X98336745Y-71298068D01*
X98482383Y-71152430D01*
X98603444Y-70985803D01*
X98696949Y-70802290D01*
X98760595Y-70606408D01*
X98792815Y-70402981D01*
X98792815Y-70197019D01*
X98760595Y-69993592D01*
X98696949Y-69797710D01*
X98603444Y-69614197D01*
X98482383Y-69447570D01*
X98482380Y-69447567D01*
X98482378Y-69447564D01*
X98336750Y-69301936D01*
X98336747Y-69301934D01*
X98336745Y-69301932D01*
X98170118Y-69180871D01*
X97986605Y-69087366D01*
X97986602Y-69087365D01*
X97986600Y-69087364D01*
X97790727Y-69023721D01*
X97790725Y-69023720D01*
X97790723Y-69023720D01*
X97587296Y-68991500D01*
X97381334Y-68991500D01*
X97177907Y-69023720D01*
X97177905Y-69023720D01*
X97177902Y-69023721D01*
X96982029Y-69087364D01*
X96982023Y-69087367D01*
X96798508Y-69180873D01*
X96631882Y-69301934D01*
X96631879Y-69301936D01*
X96486251Y-69447564D01*
X96486249Y-69447567D01*
X96365188Y-69614193D01*
X96271682Y-69797708D01*
X96271679Y-69797714D01*
X96208036Y-69993587D01*
X96208035Y-69993590D01*
X96208035Y-69993592D01*
X96175815Y-70197019D01*
X93792815Y-70197019D01*
X93760595Y-69993592D01*
X93696949Y-69797710D01*
X93603444Y-69614197D01*
X93482383Y-69447570D01*
X93482380Y-69447567D01*
X93482378Y-69447564D01*
X93336750Y-69301936D01*
X93336747Y-69301934D01*
X93336745Y-69301932D01*
X93170118Y-69180871D01*
X92986605Y-69087366D01*
X92986602Y-69087365D01*
X92986600Y-69087364D01*
X92790727Y-69023721D01*
X92790725Y-69023720D01*
X92790723Y-69023720D01*
X92587296Y-68991500D01*
X92381334Y-68991500D01*
X92177907Y-69023720D01*
X92177905Y-69023720D01*
X92177902Y-69023721D01*
X91982029Y-69087364D01*
X91982023Y-69087367D01*
X91798508Y-69180873D01*
X91631882Y-69301934D01*
X91631879Y-69301936D01*
X91486251Y-69447564D01*
X91486249Y-69447567D01*
X91365188Y-69614193D01*
X91271682Y-69797708D01*
X91271679Y-69797714D01*
X91208036Y-69993587D01*
X91208035Y-69993590D01*
X91208035Y-69993592D01*
X91175815Y-70197019D01*
X88418907Y-70197019D01*
X88425049Y-70178116D01*
X88458500Y-69966916D01*
X88458500Y-69753084D01*
X88425049Y-69541884D01*
X88358972Y-69338517D01*
X88261894Y-69147991D01*
X88136206Y-68974996D01*
X88136203Y-68974993D01*
X88136201Y-68974990D01*
X87985009Y-68823798D01*
X87985006Y-68823796D01*
X87985004Y-68823794D01*
X87824251Y-68707000D01*
X87812012Y-68698108D01*
X87812011Y-68698107D01*
X87812009Y-68698106D01*
X87621483Y-68601028D01*
X87621480Y-68601027D01*
X87621478Y-68601026D01*
X87418120Y-68534952D01*
X87418123Y-68534952D01*
X87378801Y-68528724D01*
X87206916Y-68501500D01*
X86993084Y-68501500D01*
X86866364Y-68521570D01*
X86781882Y-68534951D01*
X86597750Y-68594778D01*
X86569178Y-68595593D01*
X86540883Y-68599662D01*
X86534163Y-68596593D01*
X86526782Y-68596804D01*
X86502303Y-68582042D01*
X86476303Y-68570168D01*
X86472310Y-68563955D01*
X86465985Y-68560141D01*
X86453371Y-68534486D01*
X86437919Y-68510442D01*
X86436418Y-68500005D01*
X86434660Y-68496429D01*
X86432815Y-68474944D01*
X86432815Y-67289067D01*
X86433203Y-67279181D01*
X86444244Y-67138892D01*
X86447337Y-67119365D01*
X86456773Y-67080061D01*
X91249600Y-67080061D01*
X91249600Y-67285938D01*
X91281808Y-67489296D01*
X91345426Y-67685093D01*
X91345429Y-67685099D01*
X91438897Y-67868540D01*
X91438898Y-67868541D01*
X91470016Y-67911372D01*
X92157600Y-67223788D01*
X92157600Y-67235661D01*
X92184859Y-67337394D01*
X92237520Y-67428606D01*
X92311994Y-67503080D01*
X92403206Y-67555741D01*
X92504939Y-67583000D01*
X92516810Y-67583000D01*
X91829226Y-68270582D01*
X91829226Y-68270583D01*
X91872054Y-68301699D01*
X92055500Y-68395170D01*
X92055506Y-68395173D01*
X92251305Y-68458791D01*
X92251301Y-68458791D01*
X92454661Y-68491000D01*
X92660539Y-68491000D01*
X92863896Y-68458791D01*
X93059693Y-68395173D01*
X93059699Y-68395170D01*
X93243141Y-68301701D01*
X93285972Y-68270582D01*
X93285972Y-68270581D01*
X92598391Y-67583000D01*
X92610261Y-67583000D01*
X92711994Y-67555741D01*
X92803206Y-67503080D01*
X92877680Y-67428606D01*
X92930341Y-67337394D01*
X92957600Y-67235661D01*
X92957600Y-67223791D01*
X93645181Y-67911372D01*
X93645182Y-67911372D01*
X93676301Y-67868541D01*
X93769770Y-67685099D01*
X93769773Y-67685093D01*
X93833391Y-67489296D01*
X93865600Y-67285938D01*
X93865600Y-67080061D01*
X93833391Y-66876703D01*
X93769773Y-66680906D01*
X93769770Y-66680900D01*
X93676299Y-66497454D01*
X93645183Y-66454626D01*
X93645182Y-66454626D01*
X92957600Y-67142208D01*
X92957600Y-67130339D01*
X92930341Y-67028606D01*
X92877680Y-66937394D01*
X92803206Y-66862920D01*
X92711994Y-66810259D01*
X92610261Y-66783000D01*
X92598390Y-66783000D01*
X93285972Y-66095416D01*
X93243141Y-66064298D01*
X93243140Y-66064297D01*
X93059699Y-65970829D01*
X93059693Y-65970826D01*
X92863894Y-65907208D01*
X92863898Y-65907208D01*
X92660539Y-65875000D01*
X92454661Y-65875000D01*
X92251303Y-65907208D01*
X92055506Y-65970826D01*
X92055500Y-65970829D01*
X91872052Y-66064301D01*
X91829225Y-66095416D01*
X92516809Y-66783000D01*
X92504939Y-66783000D01*
X92403206Y-66810259D01*
X92311994Y-66862920D01*
X92237520Y-66937394D01*
X92184859Y-67028606D01*
X92157600Y-67130339D01*
X92157600Y-67142209D01*
X91470016Y-66454625D01*
X91438901Y-66497452D01*
X91345429Y-66680900D01*
X91345426Y-66680906D01*
X91281808Y-66876703D01*
X91249600Y-67080061D01*
X86456773Y-67080061D01*
X86456783Y-67080019D01*
X86479029Y-66987354D01*
X86485137Y-66968559D01*
X86537091Y-66843132D01*
X86546059Y-66825532D01*
X86616994Y-66709774D01*
X86628608Y-66693789D01*
X86720016Y-66586764D01*
X86726708Y-66579525D01*
X86789299Y-66516936D01*
X86789300Y-66516933D01*
X86796474Y-66509760D01*
X86796479Y-66509753D01*
X87131519Y-66174713D01*
X87193830Y-66140690D01*
X87202058Y-66139478D01*
X87202026Y-66139274D01*
X87206913Y-66138500D01*
X87206916Y-66138500D01*
X87418116Y-66105049D01*
X87621483Y-66038972D01*
X87812009Y-65941894D01*
X87985004Y-65816206D01*
X88136206Y-65665004D01*
X88261894Y-65492009D01*
X88358972Y-65301483D01*
X88425049Y-65098116D01*
X88458500Y-64886916D01*
X88458500Y-64673084D01*
X88425049Y-64461884D01*
X88358972Y-64258517D01*
X88261894Y-64067991D01*
X88143519Y-63905061D01*
X91249600Y-63905061D01*
X91249600Y-64110938D01*
X91281808Y-64314296D01*
X91345426Y-64510093D01*
X91345429Y-64510099D01*
X91438897Y-64693540D01*
X91438898Y-64693541D01*
X91470016Y-64736372D01*
X92157600Y-64048788D01*
X92157600Y-64060661D01*
X92184859Y-64162394D01*
X92237520Y-64253606D01*
X92311994Y-64328080D01*
X92403206Y-64380741D01*
X92504939Y-64408000D01*
X92516810Y-64408000D01*
X91829226Y-65095582D01*
X91829226Y-65095583D01*
X91872054Y-65126699D01*
X92055500Y-65220170D01*
X92055506Y-65220173D01*
X92251305Y-65283791D01*
X92251301Y-65283791D01*
X92454661Y-65316000D01*
X92660539Y-65316000D01*
X92863896Y-65283791D01*
X93059693Y-65220173D01*
X93059699Y-65220170D01*
X93243141Y-65126701D01*
X93285972Y-65095582D01*
X93285972Y-65095581D01*
X92598391Y-64408000D01*
X92610261Y-64408000D01*
X92711994Y-64380741D01*
X92803206Y-64328080D01*
X92877680Y-64253606D01*
X92930341Y-64162394D01*
X92957600Y-64060661D01*
X92957600Y-64048791D01*
X93645181Y-64736372D01*
X93645182Y-64736372D01*
X93676301Y-64693541D01*
X93769770Y-64510099D01*
X93769773Y-64510093D01*
X93833391Y-64314296D01*
X93865600Y-64110938D01*
X93865600Y-63905061D01*
X93865593Y-63905019D01*
X101409100Y-63905019D01*
X101409100Y-64110981D01*
X101441320Y-64314408D01*
X101441321Y-64314412D01*
X101467411Y-64394710D01*
X101504966Y-64510290D01*
X101598471Y-64693803D01*
X101719532Y-64860430D01*
X101719534Y-64860432D01*
X101719536Y-64860435D01*
X101865164Y-65006063D01*
X101865167Y-65006065D01*
X101865170Y-65006068D01*
X102031797Y-65127129D01*
X102215310Y-65220634D01*
X102411192Y-65284280D01*
X102614619Y-65316500D01*
X102614622Y-65316500D01*
X102820578Y-65316500D01*
X102820581Y-65316500D01*
X103024008Y-65284280D01*
X103219890Y-65220634D01*
X103403403Y-65127129D01*
X103562272Y-65011704D01*
X103629138Y-64987847D01*
X103698289Y-65003927D01*
X103747769Y-65054841D01*
X103760780Y-65093929D01*
X103778121Y-65203413D01*
X103841764Y-65399285D01*
X103841766Y-65399290D01*
X103935271Y-65582803D01*
X104056332Y-65749430D01*
X104056334Y-65749432D01*
X104056336Y-65749435D01*
X104201964Y-65895063D01*
X104201967Y-65895065D01*
X104201970Y-65895068D01*
X104368597Y-66016129D01*
X104444362Y-66054733D01*
X104495977Y-66103482D01*
X104513043Y-66172397D01*
X104490142Y-66239598D01*
X104444363Y-66279266D01*
X104375433Y-66314387D01*
X104368593Y-66317873D01*
X104201969Y-66438932D01*
X104062974Y-66577927D01*
X104000662Y-66611952D01*
X103929846Y-66606887D01*
X103873011Y-66564340D01*
X103861612Y-66546033D01*
X103836729Y-66497197D01*
X103715668Y-66330570D01*
X103715665Y-66330567D01*
X103715663Y-66330564D01*
X103570035Y-66184936D01*
X103570032Y-66184934D01*
X103570030Y-66184932D01*
X103403991Y-66064298D01*
X103403406Y-66063873D01*
X103403405Y-66063872D01*
X103403403Y-66063871D01*
X103219890Y-65970366D01*
X103219887Y-65970365D01*
X103219885Y-65970364D01*
X103024012Y-65906721D01*
X103024010Y-65906720D01*
X103024008Y-65906720D01*
X102820581Y-65874500D01*
X102614619Y-65874500D01*
X102411192Y-65906720D01*
X102411190Y-65906720D01*
X102411187Y-65906721D01*
X102215314Y-65970364D01*
X102215308Y-65970367D01*
X102031793Y-66063873D01*
X101865167Y-66184934D01*
X101865164Y-66184936D01*
X101719536Y-66330564D01*
X101719534Y-66330567D01*
X101598473Y-66497193D01*
X101504967Y-66680708D01*
X101504964Y-66680714D01*
X101441321Y-66876587D01*
X101441320Y-66876590D01*
X101441320Y-66876592D01*
X101409100Y-67080019D01*
X101409100Y-67285981D01*
X101441320Y-67489408D01*
X101504966Y-67685290D01*
X101598471Y-67868803D01*
X101719532Y-68035430D01*
X101719534Y-68035432D01*
X101719536Y-68035435D01*
X101865164Y-68181063D01*
X101865167Y-68181065D01*
X101865170Y-68181068D01*
X102031797Y-68302129D01*
X102215310Y-68395634D01*
X102411192Y-68459280D01*
X102614619Y-68491500D01*
X102614622Y-68491500D01*
X102820578Y-68491500D01*
X102820581Y-68491500D01*
X103024008Y-68459280D01*
X103219890Y-68395634D01*
X103403403Y-68302129D01*
X103570030Y-68181068D01*
X103709026Y-68042071D01*
X103771336Y-68008048D01*
X103842152Y-68013112D01*
X103898988Y-68055659D01*
X103910385Y-68073962D01*
X103935271Y-68122803D01*
X104056332Y-68289430D01*
X104056334Y-68289432D01*
X104056336Y-68289435D01*
X104201964Y-68435063D01*
X104201967Y-68435065D01*
X104201970Y-68435068D01*
X104368597Y-68556129D01*
X104444362Y-68594733D01*
X104495977Y-68643482D01*
X104513043Y-68712397D01*
X104490142Y-68779598D01*
X104444363Y-68819266D01*
X104443816Y-68819545D01*
X104368593Y-68857873D01*
X104201967Y-68978934D01*
X104201964Y-68978936D01*
X104056336Y-69124564D01*
X104056334Y-69124567D01*
X103935273Y-69291193D01*
X103841767Y-69474708D01*
X103841764Y-69474714D01*
X103778121Y-69670587D01*
X103778120Y-69670590D01*
X103778120Y-69670592D01*
X103745900Y-69874019D01*
X103745900Y-70079981D01*
X103778120Y-70283408D01*
X103778121Y-70283412D01*
X103823917Y-70424359D01*
X103841766Y-70479290D01*
X103935271Y-70662803D01*
X104056332Y-70829430D01*
X104056334Y-70829432D01*
X104056336Y-70829435D01*
X104201964Y-70975063D01*
X104201967Y-70975065D01*
X104201970Y-70975068D01*
X104368597Y-71096129D01*
X104552110Y-71189634D01*
X104747992Y-71253280D01*
X104951419Y-71285500D01*
X104951422Y-71285500D01*
X105157378Y-71285500D01*
X105157381Y-71285500D01*
X105360808Y-71253280D01*
X105556690Y-71189634D01*
X105740203Y-71096129D01*
X105906830Y-70975068D01*
X106052468Y-70829430D01*
X106173529Y-70662803D01*
X106267034Y-70479290D01*
X106330680Y-70283408D01*
X106362900Y-70079981D01*
X106362900Y-69874019D01*
X106330680Y-69670592D01*
X106267034Y-69474710D01*
X106173529Y-69291197D01*
X106052468Y-69124570D01*
X106052465Y-69124567D01*
X106052463Y-69124564D01*
X105906835Y-68978936D01*
X105906832Y-68978934D01*
X105906830Y-68978932D01*
X105740203Y-68857871D01*
X105664434Y-68819265D01*
X105612822Y-68770519D01*
X105595756Y-68701604D01*
X105618657Y-68634402D01*
X105664434Y-68594735D01*
X105740203Y-68556129D01*
X105906830Y-68435068D01*
X106052468Y-68289430D01*
X106173529Y-68122803D01*
X106267034Y-67939290D01*
X106330680Y-67743408D01*
X106362900Y-67539981D01*
X106362900Y-67334019D01*
X106330680Y-67130592D01*
X106267034Y-66934710D01*
X106173529Y-66751197D01*
X106052468Y-66584570D01*
X106052465Y-66584567D01*
X106052463Y-66584564D01*
X105906835Y-66438936D01*
X105906832Y-66438934D01*
X105906830Y-66438932D01*
X105740203Y-66317871D01*
X105664434Y-66279265D01*
X105612822Y-66230519D01*
X105595756Y-66161604D01*
X105618657Y-66094402D01*
X105664434Y-66054735D01*
X105740203Y-66016129D01*
X105906830Y-65895068D01*
X106052468Y-65749430D01*
X106173529Y-65582803D01*
X106267034Y-65399290D01*
X106330680Y-65203408D01*
X106362900Y-64999981D01*
X106362900Y-64794019D01*
X106330680Y-64590592D01*
X106267034Y-64394710D01*
X106173529Y-64211197D01*
X106052468Y-64044570D01*
X106052465Y-64044567D01*
X106052463Y-64044564D01*
X105906836Y-63898937D01*
X105906832Y-63898934D01*
X105906830Y-63898932D01*
X105891073Y-63887484D01*
X105847722Y-63831263D01*
X105841647Y-63760527D01*
X105874779Y-63697735D01*
X105936599Y-63662824D01*
X105951671Y-63660272D01*
X105963596Y-63658990D01*
X105963599Y-63658989D01*
X105963601Y-63658989D01*
X106100604Y-63607889D01*
X106158170Y-63564796D01*
X106217661Y-63520261D01*
X106305287Y-63403207D01*
X106305287Y-63403206D01*
X106305289Y-63403204D01*
X106356389Y-63266201D01*
X106362493Y-63209430D01*
X106362899Y-63205649D01*
X106362900Y-63205632D01*
X106362900Y-61508367D01*
X106362899Y-61508350D01*
X106356390Y-61447803D01*
X106356388Y-61447795D01*
X106305289Y-61310797D01*
X106305287Y-61310792D01*
X106217661Y-61193738D01*
X106100607Y-61106112D01*
X106100602Y-61106110D01*
X105963604Y-61055011D01*
X105963596Y-61055009D01*
X105903049Y-61048500D01*
X105903038Y-61048500D01*
X104205762Y-61048500D01*
X104205750Y-61048500D01*
X104145203Y-61055009D01*
X104145195Y-61055011D01*
X104008197Y-61106110D01*
X104008192Y-61106112D01*
X103891138Y-61193738D01*
X103803512Y-61310792D01*
X103803510Y-61310797D01*
X103752411Y-61447795D01*
X103752409Y-61447803D01*
X103745900Y-61508350D01*
X103745900Y-62890420D01*
X103725898Y-62958541D01*
X103672242Y-63005034D01*
X103601968Y-63015138D01*
X103545839Y-62992356D01*
X103403406Y-62888873D01*
X103403405Y-62888872D01*
X103403403Y-62888871D01*
X103219890Y-62795366D01*
X103219887Y-62795365D01*
X103219885Y-62795364D01*
X103024012Y-62731721D01*
X103024010Y-62731720D01*
X103024008Y-62731720D01*
X102820581Y-62699500D01*
X102614619Y-62699500D01*
X102411192Y-62731720D01*
X102411190Y-62731720D01*
X102411187Y-62731721D01*
X102215314Y-62795364D01*
X102215308Y-62795367D01*
X102031793Y-62888873D01*
X101865167Y-63009934D01*
X101865164Y-63009936D01*
X101719536Y-63155564D01*
X101719534Y-63155567D01*
X101598473Y-63322193D01*
X101504967Y-63505708D01*
X101504964Y-63505714D01*
X101441321Y-63701587D01*
X101441320Y-63701590D01*
X101441320Y-63701592D01*
X101409100Y-63905019D01*
X93865593Y-63905019D01*
X93833391Y-63701703D01*
X93769773Y-63505906D01*
X93769770Y-63505900D01*
X93676299Y-63322454D01*
X93645183Y-63279626D01*
X93645182Y-63279626D01*
X92957600Y-63967208D01*
X92957600Y-63955339D01*
X92930341Y-63853606D01*
X92877680Y-63762394D01*
X92803206Y-63687920D01*
X92711994Y-63635259D01*
X92610261Y-63608000D01*
X92598390Y-63608000D01*
X93285972Y-62920416D01*
X93243141Y-62889298D01*
X93243140Y-62889297D01*
X93059699Y-62795829D01*
X93059693Y-62795826D01*
X92863894Y-62732208D01*
X92863898Y-62732208D01*
X92660539Y-62700000D01*
X92454661Y-62700000D01*
X92251303Y-62732208D01*
X92055506Y-62795826D01*
X92055500Y-62795829D01*
X91872052Y-62889301D01*
X91829225Y-62920416D01*
X92516809Y-63608000D01*
X92504939Y-63608000D01*
X92403206Y-63635259D01*
X92311994Y-63687920D01*
X92237520Y-63762394D01*
X92184859Y-63853606D01*
X92157600Y-63955339D01*
X92157600Y-63967209D01*
X91470016Y-63279625D01*
X91438901Y-63322452D01*
X91345429Y-63505900D01*
X91345426Y-63505906D01*
X91281808Y-63701703D01*
X91249600Y-63905061D01*
X88143519Y-63905061D01*
X88136206Y-63894996D01*
X88136204Y-63894993D01*
X87985009Y-63743798D01*
X87985006Y-63743796D01*
X87985004Y-63743794D01*
X87812009Y-63618106D01*
X87812007Y-63618105D01*
X87810920Y-63617439D01*
X87810591Y-63617075D01*
X87808004Y-63615196D01*
X87808398Y-63614652D01*
X87763283Y-63564796D01*
X87751670Y-63494756D01*
X87779766Y-63429555D01*
X87808130Y-63404978D01*
X87808004Y-63404804D01*
X87810030Y-63403331D01*
X87810920Y-63402561D01*
X87811997Y-63401899D01*
X87812009Y-63401894D01*
X87985004Y-63276206D01*
X88136206Y-63125004D01*
X88261894Y-62952009D01*
X88358972Y-62761483D01*
X88425049Y-62558116D01*
X88458500Y-62346916D01*
X88458500Y-62133084D01*
X88425049Y-61921884D01*
X88358972Y-61718517D01*
X88261894Y-61527991D01*
X88136206Y-61354996D01*
X88136203Y-61354993D01*
X88136201Y-61354990D01*
X87985009Y-61203798D01*
X87985006Y-61203796D01*
X87985004Y-61203794D01*
X87903102Y-61144289D01*
X92822300Y-61144289D01*
X92822300Y-61334511D01*
X92852057Y-61522391D01*
X92910839Y-61703303D01*
X92910840Y-61703304D01*
X92997200Y-61872795D01*
X93109009Y-62026687D01*
X93243512Y-62161190D01*
X93243515Y-62161192D01*
X93397408Y-62273002D01*
X93566897Y-62359361D01*
X93747809Y-62418143D01*
X93935689Y-62447900D01*
X93935692Y-62447900D01*
X94125908Y-62447900D01*
X94125911Y-62447900D01*
X94313791Y-62418143D01*
X94494703Y-62359361D01*
X94664192Y-62273002D01*
X94818085Y-62161192D01*
X94952592Y-62026685D01*
X95064402Y-61872792D01*
X95150761Y-61703303D01*
X95180967Y-61610337D01*
X95221041Y-61551732D01*
X95286437Y-61524095D01*
X95356394Y-61536202D01*
X95408700Y-61584208D01*
X95420632Y-61610336D01*
X95450839Y-61703303D01*
X95450840Y-61703304D01*
X95537200Y-61872795D01*
X95649009Y-62026687D01*
X95783512Y-62161190D01*
X95783515Y-62161192D01*
X95937408Y-62273002D01*
X96106897Y-62359361D01*
X96287809Y-62418143D01*
X96475689Y-62447900D01*
X96475692Y-62447900D01*
X96665908Y-62447900D01*
X96665911Y-62447900D01*
X96853791Y-62418143D01*
X97034703Y-62359361D01*
X97204192Y-62273002D01*
X97358085Y-62161192D01*
X97492592Y-62026685D01*
X97604402Y-61872792D01*
X97690761Y-61703303D01*
X97749543Y-61522391D01*
X97779300Y-61334511D01*
X97779300Y-61144289D01*
X97749543Y-60956409D01*
X97690761Y-60775497D01*
X97604402Y-60606008D01*
X97566036Y-60553202D01*
X97492590Y-60452112D01*
X97358087Y-60317609D01*
X97204195Y-60205800D01*
X97204194Y-60205799D01*
X97204192Y-60205798D01*
X97034703Y-60119439D01*
X96853791Y-60060657D01*
X96665911Y-60030900D01*
X96475689Y-60030900D01*
X96287809Y-60060657D01*
X96287806Y-60060657D01*
X96287805Y-60060658D01*
X96106897Y-60119439D01*
X96106895Y-60119440D01*
X95937404Y-60205800D01*
X95783512Y-60317609D01*
X95649009Y-60452112D01*
X95537200Y-60606004D01*
X95537198Y-60606008D01*
X95450839Y-60775497D01*
X95441906Y-60802990D01*
X95420633Y-60868462D01*
X95380559Y-60927067D01*
X95315162Y-60954704D01*
X95245206Y-60942597D01*
X95192900Y-60894591D01*
X95180967Y-60868462D01*
X95150761Y-60775497D01*
X95064402Y-60606008D01*
X95026036Y-60553202D01*
X94952590Y-60452112D01*
X94818087Y-60317609D01*
X94664195Y-60205800D01*
X94664194Y-60205799D01*
X94664192Y-60205798D01*
X94494703Y-60119439D01*
X94313791Y-60060657D01*
X94125911Y-60030900D01*
X93935689Y-60030900D01*
X93747809Y-60060657D01*
X93747806Y-60060657D01*
X93747805Y-60060658D01*
X93566897Y-60119439D01*
X93566895Y-60119440D01*
X93397404Y-60205800D01*
X93243512Y-60317609D01*
X93109009Y-60452112D01*
X92997200Y-60606004D01*
X92910840Y-60775495D01*
X92910839Y-60775497D01*
X92865528Y-60914951D01*
X92852057Y-60956409D01*
X92822300Y-61144289D01*
X87903102Y-61144289D01*
X87812009Y-61078106D01*
X87621483Y-60981028D01*
X87621480Y-60981027D01*
X87621478Y-60981026D01*
X87418120Y-60914952D01*
X87418123Y-60914952D01*
X87378801Y-60908724D01*
X87206916Y-60881500D01*
X86993084Y-60881500D01*
X86781884Y-60914951D01*
X86781878Y-60914952D01*
X86578521Y-60981026D01*
X86578515Y-60981029D01*
X86387987Y-61078108D01*
X86214993Y-61203796D01*
X86214990Y-61203798D01*
X86063798Y-61354990D01*
X86063796Y-61354993D01*
X85938108Y-61527987D01*
X85841029Y-61718515D01*
X85841026Y-61718521D01*
X85774952Y-61921878D01*
X85774951Y-61921883D01*
X85774951Y-61921884D01*
X85741500Y-62133084D01*
X85741500Y-62346916D01*
X85759408Y-62459981D01*
X85774952Y-62558121D01*
X85831516Y-62732208D01*
X85841028Y-62761483D01*
X85938106Y-62952009D01*
X86063794Y-63125004D01*
X86063796Y-63125006D01*
X86063798Y-63125009D01*
X86214990Y-63276201D01*
X86214993Y-63276203D01*
X86214996Y-63276206D01*
X86387991Y-63401894D01*
X86387996Y-63401896D01*
X86389088Y-63402566D01*
X86389418Y-63402931D01*
X86391996Y-63404804D01*
X86391602Y-63405345D01*
X86436721Y-63455213D01*
X86448328Y-63525255D01*
X86420226Y-63590453D01*
X86391870Y-63615023D01*
X86391996Y-63615196D01*
X86389982Y-63616658D01*
X86389088Y-63617434D01*
X86387987Y-63618108D01*
X86214993Y-63743796D01*
X86214990Y-63743798D01*
X86063798Y-63894990D01*
X86063796Y-63894993D01*
X85938108Y-64067987D01*
X85841029Y-64258515D01*
X85841026Y-64258521D01*
X85774952Y-64461878D01*
X85774951Y-64461883D01*
X85774951Y-64461884D01*
X85754567Y-64590587D01*
X85740726Y-64677974D01*
X85738625Y-64677641D01*
X85716473Y-64735668D01*
X85705283Y-64748481D01*
X85363062Y-65090701D01*
X85363063Y-65090702D01*
X85296984Y-65156782D01*
X85296983Y-65156782D01*
X85192487Y-65261277D01*
X85192469Y-65261296D01*
X85004957Y-65489781D01*
X85004946Y-65489796D01*
X84840727Y-65735566D01*
X84712622Y-65975235D01*
X84662870Y-66025883D01*
X84593633Y-66041593D01*
X84526894Y-66017377D01*
X84483842Y-65960923D01*
X84475500Y-65915839D01*
X84475500Y-59030350D01*
X101344100Y-59030350D01*
X101344100Y-60349649D01*
X101350609Y-60410196D01*
X101350611Y-60410204D01*
X101401710Y-60547202D01*
X101401712Y-60547207D01*
X101489338Y-60664261D01*
X101606392Y-60751887D01*
X101606394Y-60751888D01*
X101606396Y-60751889D01*
X101665475Y-60773924D01*
X101743395Y-60802988D01*
X101743403Y-60802990D01*
X101803950Y-60809499D01*
X101803955Y-60809499D01*
X101803962Y-60809500D01*
X101803968Y-60809500D01*
X103123232Y-60809500D01*
X103123238Y-60809500D01*
X103123245Y-60809499D01*
X103123249Y-60809499D01*
X103183796Y-60802990D01*
X103183799Y-60802989D01*
X103183801Y-60802989D01*
X103320804Y-60751889D01*
X103437861Y-60664261D01*
X103525489Y-60547204D01*
X103576589Y-60410201D01*
X103583100Y-60349638D01*
X103583100Y-59832016D01*
X117827700Y-59832016D01*
X117827700Y-60055983D01*
X117856931Y-60278020D01*
X117856933Y-60278027D01*
X117914898Y-60494358D01*
X118000605Y-60701272D01*
X118000606Y-60701273D01*
X118000611Y-60701283D01*
X118104660Y-60881500D01*
X118112586Y-60895228D01*
X118248925Y-61072909D01*
X118248934Y-61072919D01*
X118407280Y-61231265D01*
X118407290Y-61231274D01*
X118407291Y-61231275D01*
X118584972Y-61367614D01*
X118778928Y-61479595D01*
X118985842Y-61565302D01*
X119202173Y-61623267D01*
X119202177Y-61623267D01*
X119202179Y-61623268D01*
X119259404Y-61630801D01*
X119424219Y-61652500D01*
X119424226Y-61652500D01*
X119648174Y-61652500D01*
X119648181Y-61652500D01*
X119848856Y-61626080D01*
X119870220Y-61623268D01*
X119870220Y-61623267D01*
X119870227Y-61623267D01*
X120086558Y-61565302D01*
X120293472Y-61479595D01*
X120487428Y-61367614D01*
X120665109Y-61231275D01*
X120823475Y-61072909D01*
X120959814Y-60895228D01*
X121071795Y-60701272D01*
X121157502Y-60494358D01*
X121215467Y-60278027D01*
X121244700Y-60055981D01*
X121244700Y-59832019D01*
X121215467Y-59609973D01*
X121157502Y-59393642D01*
X121071795Y-59186728D01*
X120959814Y-58992772D01*
X120823475Y-58815091D01*
X120823474Y-58815090D01*
X120823465Y-58815080D01*
X120703735Y-58695350D01*
X122827700Y-58695350D01*
X122827700Y-61192649D01*
X122834209Y-61253196D01*
X122834211Y-61253204D01*
X122885310Y-61390202D01*
X122885312Y-61390207D01*
X122972938Y-61507261D01*
X123089992Y-61594887D01*
X123089994Y-61594888D01*
X123089996Y-61594889D01*
X123131416Y-61610338D01*
X123226995Y-61645988D01*
X123227003Y-61645990D01*
X123287550Y-61652499D01*
X123287555Y-61652499D01*
X123287562Y-61652500D01*
X123287568Y-61652500D01*
X125784832Y-61652500D01*
X125784838Y-61652500D01*
X125784845Y-61652499D01*
X125784849Y-61652499D01*
X125845396Y-61645990D01*
X125845399Y-61645989D01*
X125845401Y-61645989D01*
X125982404Y-61594889D01*
X126060801Y-61536202D01*
X126099461Y-61507261D01*
X126187087Y-61390207D01*
X126187087Y-61390206D01*
X126187089Y-61390204D01*
X126238189Y-61253201D01*
X126240547Y-61231275D01*
X126244699Y-61192649D01*
X126244700Y-61192632D01*
X126244700Y-58695367D01*
X126244699Y-58695350D01*
X126238190Y-58634803D01*
X126238188Y-58634795D01*
X126206788Y-58550610D01*
X126187089Y-58497796D01*
X126187088Y-58497794D01*
X126187087Y-58497792D01*
X126099461Y-58380738D01*
X125982407Y-58293112D01*
X125982402Y-58293110D01*
X125845404Y-58242011D01*
X125845396Y-58242009D01*
X125784849Y-58235500D01*
X125784838Y-58235500D01*
X123287562Y-58235500D01*
X123287550Y-58235500D01*
X123227003Y-58242009D01*
X123226995Y-58242011D01*
X123089997Y-58293110D01*
X123089992Y-58293112D01*
X122972938Y-58380738D01*
X122885312Y-58497792D01*
X122885310Y-58497797D01*
X122834211Y-58634795D01*
X122834209Y-58634803D01*
X122827700Y-58695350D01*
X120703735Y-58695350D01*
X120665119Y-58656734D01*
X120665109Y-58656725D01*
X120487428Y-58520386D01*
X120487423Y-58520383D01*
X120293483Y-58408411D01*
X120293478Y-58408408D01*
X120293472Y-58408405D01*
X120086558Y-58322698D01*
X119870227Y-58264733D01*
X119870220Y-58264731D01*
X119648183Y-58235500D01*
X119648181Y-58235500D01*
X119424219Y-58235500D01*
X119424216Y-58235500D01*
X119202179Y-58264731D01*
X118988854Y-58321891D01*
X118985842Y-58322698D01*
X118845720Y-58380739D01*
X118778926Y-58408406D01*
X118778916Y-58408411D01*
X118584976Y-58520383D01*
X118407290Y-58656725D01*
X118407280Y-58656734D01*
X118248934Y-58815080D01*
X118248925Y-58815090D01*
X118112583Y-58992776D01*
X118000611Y-59186716D01*
X118000606Y-59186726D01*
X117914898Y-59393642D01*
X117856931Y-59609979D01*
X117827700Y-59832016D01*
X103583100Y-59832016D01*
X103583100Y-59030362D01*
X103583099Y-59030350D01*
X103576590Y-58969803D01*
X103576588Y-58969795D01*
X103525489Y-58832797D01*
X103525487Y-58832792D01*
X103437861Y-58715738D01*
X103320807Y-58628112D01*
X103320802Y-58628110D01*
X103183804Y-58577011D01*
X103183796Y-58577009D01*
X103123249Y-58570500D01*
X103123238Y-58570500D01*
X101803962Y-58570500D01*
X101803950Y-58570500D01*
X101743403Y-58577009D01*
X101743395Y-58577011D01*
X101606397Y-58628110D01*
X101606392Y-58628112D01*
X101489338Y-58715738D01*
X101401712Y-58832792D01*
X101401710Y-58832797D01*
X101350611Y-58969795D01*
X101350609Y-58969803D01*
X101344100Y-59030350D01*
X84475500Y-59030350D01*
X84475500Y-57172920D01*
X84475634Y-57167101D01*
X84478560Y-57103816D01*
X84480906Y-57053084D01*
X85741500Y-57053084D01*
X85741500Y-57266916D01*
X85767629Y-57431886D01*
X85774952Y-57478121D01*
X85807970Y-57579740D01*
X85841028Y-57681483D01*
X85938106Y-57872009D01*
X86063794Y-58045004D01*
X86063796Y-58045006D01*
X86063798Y-58045009D01*
X86214990Y-58196201D01*
X86214993Y-58196203D01*
X86214996Y-58196206D01*
X86387991Y-58321894D01*
X86578517Y-58418972D01*
X86781878Y-58485047D01*
X86781879Y-58485047D01*
X86781884Y-58485049D01*
X86993084Y-58518500D01*
X86993087Y-58518500D01*
X87206913Y-58518500D01*
X87206916Y-58518500D01*
X87418116Y-58485049D01*
X87621483Y-58418972D01*
X87812009Y-58321894D01*
X87985004Y-58196206D01*
X88136206Y-58045004D01*
X88261894Y-57872009D01*
X88358972Y-57681483D01*
X88425049Y-57478116D01*
X88458500Y-57266916D01*
X88458500Y-57053084D01*
X88425049Y-56841884D01*
X88358972Y-56638517D01*
X88261894Y-56447991D01*
X88136206Y-56274996D01*
X88136203Y-56274993D01*
X88136201Y-56274990D01*
X87985015Y-56123804D01*
X87985006Y-56123796D01*
X87985004Y-56123794D01*
X87894540Y-56058068D01*
X87857368Y-56031061D01*
X92856400Y-56031061D01*
X92856400Y-56236938D01*
X92888608Y-56440296D01*
X92952226Y-56636093D01*
X92952229Y-56636099D01*
X93045697Y-56819540D01*
X93045698Y-56819541D01*
X93076816Y-56862372D01*
X93764400Y-56174788D01*
X93764400Y-56186661D01*
X93791659Y-56288394D01*
X93844320Y-56379606D01*
X93918794Y-56454080D01*
X94010006Y-56506741D01*
X94111739Y-56534000D01*
X94123608Y-56534000D01*
X93436026Y-57221581D01*
X93436026Y-57221583D01*
X93478854Y-57252699D01*
X93662300Y-57346170D01*
X93662306Y-57346173D01*
X93858105Y-57409791D01*
X93858101Y-57409791D01*
X94061461Y-57442000D01*
X94267339Y-57442000D01*
X94470696Y-57409791D01*
X94666493Y-57346173D01*
X94666499Y-57346170D01*
X94849942Y-57252701D01*
X94913744Y-57206345D01*
X94980612Y-57182486D01*
X95049763Y-57198565D01*
X95076902Y-57219185D01*
X95140741Y-57283024D01*
X95140747Y-57283029D01*
X95140748Y-57283030D01*
X95291662Y-57376115D01*
X95459974Y-57431887D01*
X95563855Y-57442500D01*
X96764944Y-57442499D01*
X96868826Y-57431887D01*
X97037138Y-57376115D01*
X97188052Y-57283030D01*
X97313430Y-57157652D01*
X97372495Y-57061893D01*
X98804100Y-57061893D01*
X98804100Y-57238107D01*
X98831666Y-57412150D01*
X98831667Y-57412153D01*
X98838078Y-57431886D01*
X98886118Y-57579739D01*
X98966117Y-57736746D01*
X99005826Y-57791400D01*
X99069694Y-57879307D01*
X99194292Y-58003905D01*
X99194295Y-58003907D01*
X99336854Y-58107483D01*
X99493861Y-58187482D01*
X99661450Y-58241934D01*
X99835493Y-58269500D01*
X99835496Y-58269500D01*
X100011704Y-58269500D01*
X100011707Y-58269500D01*
X100185750Y-58241934D01*
X100353339Y-58187482D01*
X100510346Y-58107483D01*
X100536585Y-58088419D01*
X106416700Y-58088419D01*
X106416700Y-58294381D01*
X106448920Y-58497808D01*
X106448921Y-58497812D01*
X106493429Y-58634795D01*
X106512566Y-58693690D01*
X106606071Y-58877203D01*
X106727132Y-59043830D01*
X106727134Y-59043832D01*
X106727136Y-59043835D01*
X106872764Y-59189463D01*
X106872767Y-59189465D01*
X106872770Y-59189468D01*
X107039397Y-59310529D01*
X107222910Y-59404034D01*
X107418792Y-59467680D01*
X107622219Y-59499900D01*
X107622222Y-59499900D01*
X107828178Y-59499900D01*
X107828181Y-59499900D01*
X108031608Y-59467680D01*
X108227490Y-59404034D01*
X108411003Y-59310529D01*
X108577630Y-59189468D01*
X108580382Y-59186716D01*
X108625233Y-59141866D01*
X108723263Y-59043835D01*
X108723268Y-59043830D01*
X108844329Y-58877203D01*
X108937834Y-58693690D01*
X109001480Y-58497808D01*
X109033700Y-58294381D01*
X109033700Y-58088461D01*
X111417200Y-58088461D01*
X111417200Y-58294338D01*
X111449408Y-58497696D01*
X111513026Y-58693493D01*
X111513029Y-58693499D01*
X111606497Y-58876940D01*
X111606498Y-58876941D01*
X111637616Y-58919772D01*
X112325200Y-58232188D01*
X112325200Y-58244061D01*
X112352459Y-58345794D01*
X112405120Y-58437006D01*
X112479594Y-58511480D01*
X112570806Y-58564141D01*
X112672539Y-58591400D01*
X112684410Y-58591400D01*
X111996826Y-59278982D01*
X111996826Y-59278983D01*
X112039654Y-59310099D01*
X112223100Y-59403570D01*
X112223106Y-59403573D01*
X112418905Y-59467191D01*
X112418901Y-59467191D01*
X112622261Y-59499400D01*
X112828139Y-59499400D01*
X113031496Y-59467191D01*
X113227293Y-59403573D01*
X113227299Y-59403570D01*
X113410741Y-59310101D01*
X113453572Y-59278982D01*
X113453572Y-59278981D01*
X112765991Y-58591400D01*
X112777861Y-58591400D01*
X112879594Y-58564141D01*
X112970806Y-58511480D01*
X113045280Y-58437006D01*
X113097941Y-58345794D01*
X113125200Y-58244061D01*
X113125200Y-58232191D01*
X113812781Y-58919772D01*
X113812782Y-58919772D01*
X113843901Y-58876941D01*
X113937370Y-58693499D01*
X113937373Y-58693493D01*
X114000991Y-58497696D01*
X114033200Y-58294338D01*
X114033200Y-58088461D01*
X114000991Y-57885103D01*
X113937373Y-57689306D01*
X113937370Y-57689300D01*
X113843899Y-57505854D01*
X113812783Y-57463026D01*
X113812782Y-57463026D01*
X113125200Y-58150608D01*
X113125200Y-58138739D01*
X113097941Y-58037006D01*
X113045280Y-57945794D01*
X112970806Y-57871320D01*
X112879594Y-57818659D01*
X112777861Y-57791400D01*
X112765990Y-57791400D01*
X113453572Y-57103816D01*
X113410741Y-57072698D01*
X113410740Y-57072697D01*
X113227299Y-56979229D01*
X113227293Y-56979226D01*
X113031494Y-56915608D01*
X113031498Y-56915608D01*
X112828139Y-56883400D01*
X112622261Y-56883400D01*
X112418903Y-56915608D01*
X112223106Y-56979226D01*
X112223100Y-56979229D01*
X112039652Y-57072701D01*
X111996825Y-57103816D01*
X112684409Y-57791400D01*
X112672539Y-57791400D01*
X112570806Y-57818659D01*
X112479594Y-57871320D01*
X112405120Y-57945794D01*
X112352459Y-58037006D01*
X112325200Y-58138739D01*
X112325200Y-58150609D01*
X111637616Y-57463025D01*
X111606501Y-57505852D01*
X111513029Y-57689300D01*
X111513026Y-57689306D01*
X111449408Y-57885103D01*
X111417200Y-58088461D01*
X109033700Y-58088461D01*
X109033700Y-58088419D01*
X109001480Y-57884992D01*
X108937834Y-57689110D01*
X108844329Y-57505597D01*
X108723268Y-57338970D01*
X108723265Y-57338967D01*
X108723263Y-57338964D01*
X108577635Y-57193336D01*
X108577632Y-57193334D01*
X108577630Y-57193332D01*
X108411591Y-57072698D01*
X108411006Y-57072273D01*
X108411005Y-57072272D01*
X108411003Y-57072271D01*
X108227490Y-56978766D01*
X108227487Y-56978765D01*
X108227485Y-56978764D01*
X108031612Y-56915121D01*
X108031610Y-56915120D01*
X108031608Y-56915120D01*
X107828181Y-56882900D01*
X107622219Y-56882900D01*
X107418792Y-56915120D01*
X107418790Y-56915120D01*
X107418787Y-56915121D01*
X107222914Y-56978764D01*
X107222908Y-56978767D01*
X107039393Y-57072273D01*
X106872767Y-57193334D01*
X106872764Y-57193336D01*
X106727136Y-57338964D01*
X106727134Y-57338967D01*
X106606073Y-57505593D01*
X106512567Y-57689108D01*
X106512564Y-57689114D01*
X106448921Y-57884987D01*
X106448920Y-57884990D01*
X106448920Y-57884992D01*
X106416700Y-58088419D01*
X100536585Y-58088419D01*
X100652905Y-58003907D01*
X100652910Y-58003902D01*
X100662440Y-57994373D01*
X100777502Y-57879310D01*
X100777505Y-57879307D01*
X100777507Y-57879305D01*
X100881083Y-57736746D01*
X100961082Y-57579739D01*
X101015534Y-57412150D01*
X101043100Y-57238107D01*
X101043100Y-57061893D01*
X101015534Y-56887850D01*
X100961082Y-56720261D01*
X100881083Y-56563254D01*
X100777507Y-56420695D01*
X100777505Y-56420692D01*
X100652907Y-56296094D01*
X100588314Y-56249164D01*
X100510346Y-56192517D01*
X100353339Y-56112518D01*
X100353336Y-56112517D01*
X100353334Y-56112516D01*
X100185753Y-56058067D01*
X100185750Y-56058066D01*
X100011707Y-56030500D01*
X99835493Y-56030500D01*
X99661450Y-56058066D01*
X99661447Y-56058066D01*
X99661446Y-56058067D01*
X99493865Y-56112516D01*
X99493861Y-56112518D01*
X99336854Y-56192517D01*
X99336851Y-56192518D01*
X99336851Y-56192519D01*
X99194292Y-56296094D01*
X99069694Y-56420692D01*
X98966119Y-56563251D01*
X98886119Y-56720259D01*
X98886116Y-56720265D01*
X98847724Y-56838427D01*
X98831666Y-56887850D01*
X98804100Y-57061893D01*
X97372495Y-57061893D01*
X97406515Y-57006738D01*
X97462287Y-56838426D01*
X97472900Y-56734545D01*
X97472899Y-55533456D01*
X97462287Y-55429574D01*
X97406515Y-55261262D01*
X97313430Y-55110348D01*
X97313429Y-55110347D01*
X97313424Y-55110341D01*
X97188058Y-54984975D01*
X97188052Y-54984970D01*
X97106574Y-54934714D01*
X97037138Y-54891885D01*
X96935506Y-54858208D01*
X96868827Y-54836113D01*
X96868820Y-54836112D01*
X96764953Y-54825500D01*
X95563855Y-54825500D01*
X95459974Y-54836112D01*
X95291661Y-54891885D01*
X95140747Y-54984970D01*
X95076903Y-55048814D01*
X95014590Y-55082839D01*
X94943775Y-55077773D01*
X94913748Y-55061655D01*
X94849944Y-55015299D01*
X94666499Y-54921829D01*
X94666493Y-54921826D01*
X94470694Y-54858208D01*
X94470698Y-54858208D01*
X94267339Y-54826000D01*
X94061461Y-54826000D01*
X93858103Y-54858208D01*
X93662306Y-54921826D01*
X93662300Y-54921829D01*
X93478852Y-55015301D01*
X93436026Y-55046415D01*
X94123611Y-55734000D01*
X94111739Y-55734000D01*
X94010006Y-55761259D01*
X93918794Y-55813920D01*
X93844320Y-55888394D01*
X93791659Y-55979606D01*
X93764400Y-56081339D01*
X93764400Y-56093209D01*
X93076816Y-55405625D01*
X93045701Y-55448452D01*
X92952229Y-55631900D01*
X92952226Y-55631906D01*
X92888608Y-55827703D01*
X92856400Y-56031061D01*
X87857368Y-56031061D01*
X87812012Y-55998108D01*
X87812011Y-55998107D01*
X87812009Y-55998106D01*
X87621483Y-55901028D01*
X87621480Y-55901027D01*
X87621478Y-55901026D01*
X87418120Y-55834952D01*
X87418123Y-55834952D01*
X87342086Y-55822909D01*
X87206916Y-55801500D01*
X86993084Y-55801500D01*
X86781884Y-55834951D01*
X86781878Y-55834952D01*
X86578521Y-55901026D01*
X86578515Y-55901029D01*
X86387987Y-55998108D01*
X86214993Y-56123796D01*
X86214990Y-56123798D01*
X86063798Y-56274990D01*
X86063796Y-56274993D01*
X85938108Y-56447987D01*
X85841029Y-56638515D01*
X85841026Y-56638521D01*
X85774952Y-56841878D01*
X85774951Y-56841883D01*
X85774951Y-56841884D01*
X85741500Y-57053084D01*
X84480906Y-57053084D01*
X84493679Y-56776802D01*
X84494753Y-56765215D01*
X84512764Y-56636099D01*
X84548331Y-56381122D01*
X84550463Y-56369719D01*
X84639253Y-55992205D01*
X84642436Y-55981020D01*
X84660337Y-55927611D01*
X84765678Y-55613316D01*
X84769869Y-55602499D01*
X84926520Y-55247714D01*
X84931695Y-55237324D01*
X85120404Y-54898527D01*
X85126516Y-54888654D01*
X85345697Y-54568689D01*
X85352678Y-54559444D01*
X85383860Y-54521893D01*
X101344100Y-54521893D01*
X101344100Y-54698107D01*
X101371666Y-54872150D01*
X101371667Y-54872153D01*
X101418177Y-55015301D01*
X101426118Y-55039739D01*
X101506117Y-55196746D01*
X101539290Y-55242404D01*
X101609694Y-55339307D01*
X101734292Y-55463905D01*
X101734295Y-55463907D01*
X101876854Y-55567483D01*
X102033861Y-55647482D01*
X102201450Y-55701934D01*
X102375493Y-55729500D01*
X102375496Y-55729500D01*
X102551704Y-55729500D01*
X102551707Y-55729500D01*
X102725750Y-55701934D01*
X102893339Y-55647482D01*
X103050346Y-55567483D01*
X103192905Y-55463907D01*
X103317507Y-55339305D01*
X103421083Y-55196746D01*
X103501082Y-55039739D01*
X103527959Y-54957019D01*
X106870100Y-54957019D01*
X106870100Y-55162981D01*
X106898028Y-55339307D01*
X106902321Y-55366412D01*
X106944731Y-55496938D01*
X106965966Y-55562290D01*
X107059471Y-55745803D01*
X107180532Y-55912430D01*
X107180534Y-55912432D01*
X107180536Y-55912435D01*
X107326164Y-56058063D01*
X107326167Y-56058065D01*
X107326170Y-56058068D01*
X107492797Y-56179129D01*
X107676310Y-56272634D01*
X107872192Y-56336280D01*
X108075619Y-56368500D01*
X108075622Y-56368500D01*
X108281578Y-56368500D01*
X108281581Y-56368500D01*
X108485008Y-56336280D01*
X108680890Y-56272634D01*
X108864403Y-56179129D01*
X109031030Y-56058068D01*
X109176668Y-55912430D01*
X109297729Y-55745803D01*
X109336334Y-55670034D01*
X109385081Y-55618422D01*
X109453996Y-55601356D01*
X109521198Y-55624257D01*
X109560864Y-55670034D01*
X109599471Y-55745803D01*
X109720532Y-55912430D01*
X109720534Y-55912432D01*
X109720536Y-55912435D01*
X109866164Y-56058063D01*
X109866167Y-56058065D01*
X109866170Y-56058068D01*
X110032797Y-56179129D01*
X110216310Y-56272634D01*
X110412192Y-56336280D01*
X110615619Y-56368500D01*
X110615622Y-56368500D01*
X110821578Y-56368500D01*
X110821581Y-56368500D01*
X111025008Y-56336280D01*
X111220890Y-56272634D01*
X111404403Y-56179129D01*
X111571030Y-56058068D01*
X111716668Y-55912430D01*
X111837729Y-55745803D01*
X111931234Y-55562290D01*
X111994880Y-55366408D01*
X112027100Y-55162981D01*
X112027100Y-54957019D01*
X111994880Y-54753592D01*
X111931234Y-54557710D01*
X111837729Y-54374197D01*
X111716668Y-54207570D01*
X111716665Y-54207567D01*
X111716663Y-54207564D01*
X111571035Y-54061936D01*
X111571032Y-54061934D01*
X111571030Y-54061932D01*
X111404403Y-53940871D01*
X111220890Y-53847366D01*
X111220887Y-53847365D01*
X111220885Y-53847364D01*
X111025012Y-53783721D01*
X111025010Y-53783720D01*
X111025008Y-53783720D01*
X110821581Y-53751500D01*
X110615619Y-53751500D01*
X110412192Y-53783720D01*
X110412190Y-53783720D01*
X110412187Y-53783721D01*
X110216314Y-53847364D01*
X110216308Y-53847367D01*
X110032793Y-53940873D01*
X109866167Y-54061934D01*
X109866164Y-54061936D01*
X109720536Y-54207564D01*
X109720534Y-54207567D01*
X109599473Y-54374193D01*
X109560867Y-54449962D01*
X109512118Y-54501577D01*
X109443203Y-54518643D01*
X109376002Y-54495742D01*
X109336333Y-54449962D01*
X109329447Y-54436447D01*
X109297729Y-54374197D01*
X109176668Y-54207570D01*
X109176665Y-54207567D01*
X109176663Y-54207564D01*
X109031035Y-54061936D01*
X109031032Y-54061934D01*
X109031030Y-54061932D01*
X108864403Y-53940871D01*
X108680890Y-53847366D01*
X108680887Y-53847365D01*
X108680885Y-53847364D01*
X108485012Y-53783721D01*
X108485010Y-53783720D01*
X108485008Y-53783720D01*
X108281581Y-53751500D01*
X108075619Y-53751500D01*
X107872192Y-53783720D01*
X107872190Y-53783720D01*
X107872187Y-53783721D01*
X107676314Y-53847364D01*
X107676308Y-53847367D01*
X107492793Y-53940873D01*
X107326167Y-54061934D01*
X107326164Y-54061936D01*
X107180536Y-54207564D01*
X107180534Y-54207567D01*
X107059473Y-54374193D01*
X106965967Y-54557708D01*
X106965964Y-54557714D01*
X106902321Y-54753587D01*
X106902320Y-54753590D01*
X106902320Y-54753592D01*
X106870100Y-54957019D01*
X103527959Y-54957019D01*
X103555534Y-54872150D01*
X103583100Y-54698107D01*
X103583100Y-54521893D01*
X103555534Y-54347850D01*
X103501082Y-54180261D01*
X103421083Y-54023254D01*
X103317507Y-53880695D01*
X103317505Y-53880692D01*
X103192907Y-53756094D01*
X103056838Y-53657234D01*
X103050346Y-53652517D01*
X102893339Y-53572518D01*
X102893336Y-53572517D01*
X102893334Y-53572516D01*
X102725753Y-53518067D01*
X102725750Y-53518066D01*
X102551707Y-53490500D01*
X102375493Y-53490500D01*
X102201450Y-53518066D01*
X102201447Y-53518066D01*
X102201446Y-53518067D01*
X102033865Y-53572516D01*
X102033861Y-53572518D01*
X101876854Y-53652517D01*
X101876851Y-53652518D01*
X101876851Y-53652519D01*
X101734292Y-53756094D01*
X101609694Y-53880692D01*
X101506119Y-54023251D01*
X101426119Y-54180259D01*
X101426116Y-54180265D01*
X101401313Y-54256603D01*
X101371666Y-54347850D01*
X101344100Y-54521893D01*
X85383860Y-54521893D01*
X85600450Y-54261065D01*
X85608269Y-54252489D01*
X85882489Y-53978269D01*
X85891065Y-53970450D01*
X86189444Y-53722678D01*
X86198689Y-53715697D01*
X86518654Y-53496516D01*
X86528527Y-53490404D01*
X86867324Y-53301695D01*
X86877714Y-53296520D01*
X87232499Y-53139869D01*
X87243316Y-53135678D01*
X87611029Y-53012433D01*
X87622205Y-53009253D01*
X87999719Y-52920463D01*
X88011122Y-52918331D01*
X88345188Y-52871731D01*
X88395215Y-52864753D01*
X88406803Y-52863679D01*
X88797040Y-52845636D01*
X88802966Y-52845503D01*
X124843876Y-52886717D01*
G37*
%TD.AperFunction*%
%TA.AperFunction,Conductor*%
G36*
X98531896Y-74203372D02*
G01*
X98531897Y-74203372D01*
X98563016Y-74160541D01*
X98641768Y-74005984D01*
X98690516Y-73954369D01*
X98759431Y-73937303D01*
X98826633Y-73960204D01*
X98866300Y-74005982D01*
X98945186Y-74160803D01*
X99066247Y-74327430D01*
X99066249Y-74327432D01*
X99066251Y-74327435D01*
X99185221Y-74446405D01*
X99219247Y-74508717D01*
X99214182Y-74579532D01*
X99171635Y-74636368D01*
X99105115Y-74661179D01*
X99096126Y-74661500D01*
X98301209Y-74661500D01*
X98233088Y-74641498D01*
X98186595Y-74587842D01*
X98184157Y-74574051D01*
X97485106Y-73875000D01*
X97496976Y-73875000D01*
X97598709Y-73847741D01*
X97689921Y-73795080D01*
X97764395Y-73720606D01*
X97817056Y-73629394D01*
X97844315Y-73527661D01*
X97844315Y-73515791D01*
X98531896Y-74203372D01*
G37*
%TD.AperFunction*%
%TD*%
M02*
