%TF.GenerationSoftware,KiCad,Pcbnew,10.0.6*%
%TF.CreationDate,2026-10-04T09:58:40+02:00*%
%TF.ProjectId,uAmp,75416d70-2e6b-4696-9361-645f70636258,3*%
%TF.SameCoordinates,Original*%
%TF.FileFunction,Soldermask,Bot*%
%TF.FilePolarity,Negative*%
%FSLAX46Y46*%
G04 Gerber Fmt 4.6, Leading zero omitted, Abs format (unit mm)*
G04 Created by KiCad (PCBNEW 10.0.6) date 2026-10-04 09:58:40*
%MOMM*%
%LPD*%
G01*
G04 APERTURE LIST*
G04 APERTURE END LIST*
G36*
X116818004Y-74181338D02*
G01*
X116954019Y-74237677D01*
X117076429Y-74319469D01*
X117180531Y-74423571D01*
X117262323Y-74545981D01*
X117318662Y-74681996D01*
X117347384Y-74826389D01*
X117347384Y-74973611D01*
X117318662Y-75118004D01*
X117262323Y-75254019D01*
X117180531Y-75376429D01*
X117076429Y-75480531D01*
X116954019Y-75562323D01*
X116818004Y-75618662D01*
X116673611Y-75647384D01*
X116526389Y-75647384D01*
X116381996Y-75618662D01*
X116245981Y-75562323D01*
X116123571Y-75480531D01*
X116019469Y-75376429D01*
X115937677Y-75254019D01*
X115881338Y-75118004D01*
X115852616Y-74973611D01*
X115852616Y-74826389D01*
X115881338Y-74681996D01*
X115937677Y-74545981D01*
X116019469Y-74423571D01*
X116123571Y-74319469D01*
X116245981Y-74237677D01*
X116381996Y-74181338D01*
X116526389Y-74152616D01*
X116673611Y-74152616D01*
X116818004Y-74181338D01*
G37*
G36*
X119358004Y-74181338D02*
G01*
X119494019Y-74237677D01*
X119616429Y-74319469D01*
X119720531Y-74423571D01*
X119802323Y-74545981D01*
X119858662Y-74681996D01*
X119887384Y-74826389D01*
X119887384Y-74973611D01*
X119858662Y-75118004D01*
X119802323Y-75254019D01*
X119720531Y-75376429D01*
X119616429Y-75480531D01*
X119494019Y-75562323D01*
X119358004Y-75618662D01*
X119213611Y-75647384D01*
X119066389Y-75647384D01*
X118921996Y-75618662D01*
X118785981Y-75562323D01*
X118663571Y-75480531D01*
X118559469Y-75376429D01*
X118477677Y-75254019D01*
X118421338Y-75118004D01*
X118392616Y-74973611D01*
X118392616Y-74826389D01*
X118421338Y-74681996D01*
X118477677Y-74545981D01*
X118559469Y-74423571D01*
X118663571Y-74319469D01*
X118785981Y-74237677D01*
X118921996Y-74181338D01*
X119066389Y-74152616D01*
X119213611Y-74152616D01*
X119358004Y-74181338D01*
G37*
G36*
X125477021Y-69184187D02*
G01*
X125789929Y-69246428D01*
X126095229Y-69339040D01*
X126389982Y-69461131D01*
X126671348Y-69611524D01*
X126936618Y-69788772D01*
X127183238Y-69991168D01*
X127408832Y-70216762D01*
X127611228Y-70463382D01*
X127788476Y-70728652D01*
X127938869Y-71010018D01*
X128060960Y-71304771D01*
X128153572Y-71610071D01*
X128215813Y-71922979D01*
X128247084Y-72240481D01*
X128247084Y-72559519D01*
X128215813Y-72877021D01*
X128153572Y-73189929D01*
X128060960Y-73495229D01*
X127938869Y-73789982D01*
X127788476Y-74071348D01*
X127611228Y-74336618D01*
X127408832Y-74583238D01*
X127183238Y-74808832D01*
X126936618Y-75011228D01*
X126671348Y-75188476D01*
X126389982Y-75338869D01*
X126095229Y-75460960D01*
X125789929Y-75553572D01*
X125477021Y-75615813D01*
X125159519Y-75647084D01*
X124840481Y-75647084D01*
X124522979Y-75615813D01*
X124210071Y-75553572D01*
X123904771Y-75460960D01*
X123610018Y-75338869D01*
X123328652Y-75188476D01*
X123063382Y-75011228D01*
X122816762Y-74808832D01*
X122591168Y-74583238D01*
X122388772Y-74336618D01*
X122211524Y-74071348D01*
X122061131Y-73789982D01*
X121939040Y-73495229D01*
X121846428Y-73189929D01*
X121784187Y-72877021D01*
X121752916Y-72559519D01*
X121752916Y-72240481D01*
X121784187Y-71922979D01*
X121846428Y-71610071D01*
X121939040Y-71304771D01*
X122061131Y-71010018D01*
X122211524Y-70728652D01*
X122388772Y-70463382D01*
X122591168Y-70216762D01*
X122816762Y-69991168D01*
X123063382Y-69788772D01*
X123328652Y-69611524D01*
X123610018Y-69461131D01*
X123904771Y-69339040D01*
X124210071Y-69246428D01*
X124522979Y-69184187D01*
X124840481Y-69152916D01*
X125159519Y-69152916D01*
X125477021Y-69184187D01*
G37*
G36*
X92691347Y-72660644D02*
G01*
X92845474Y-72724485D01*
X92984184Y-72817168D01*
X93102147Y-72935131D01*
X93194830Y-73073841D01*
X93258671Y-73227968D01*
X93291217Y-73391587D01*
X93291217Y-73558413D01*
X93258671Y-73722032D01*
X93194830Y-73876159D01*
X93102147Y-74014869D01*
X92984184Y-74132832D01*
X92845474Y-74225515D01*
X92691347Y-74289356D01*
X92527728Y-74321902D01*
X92360902Y-74321902D01*
X92197283Y-74289356D01*
X92043156Y-74225515D01*
X91904446Y-74132832D01*
X91786483Y-74014869D01*
X91693800Y-73876159D01*
X91629959Y-73722032D01*
X91597413Y-73558413D01*
X91597413Y-73391587D01*
X91629959Y-73227968D01*
X91693800Y-73073841D01*
X91786483Y-72935131D01*
X91904446Y-72817168D01*
X92043156Y-72724485D01*
X92197283Y-72660644D01*
X92360902Y-72628098D01*
X92527728Y-72628098D01*
X92691347Y-72660644D01*
G37*
G36*
X97691347Y-72660644D02*
G01*
X97845474Y-72724485D01*
X97984184Y-72817168D01*
X98102147Y-72935131D01*
X98194830Y-73073841D01*
X98258671Y-73227968D01*
X98291217Y-73391587D01*
X98291217Y-73558413D01*
X98258671Y-73722032D01*
X98194830Y-73876159D01*
X98102147Y-74014869D01*
X97984184Y-74132832D01*
X97845474Y-74225515D01*
X97691347Y-74289356D01*
X97527728Y-74321902D01*
X97360902Y-74321902D01*
X97197283Y-74289356D01*
X97043156Y-74225515D01*
X96904446Y-74132832D01*
X96786483Y-74014869D01*
X96693800Y-73876159D01*
X96629959Y-73722032D01*
X96597413Y-73558413D01*
X96597413Y-73391587D01*
X96629959Y-73227968D01*
X96693800Y-73073841D01*
X96786483Y-72935131D01*
X96904446Y-72817168D01*
X97043156Y-72724485D01*
X97197283Y-72660644D01*
X97360902Y-72628098D01*
X97527728Y-72628098D01*
X97691347Y-72660644D01*
G37*
G36*
X100311347Y-72660644D02*
G01*
X100465474Y-72724485D01*
X100604184Y-72817168D01*
X100722147Y-72935131D01*
X100814830Y-73073841D01*
X100878671Y-73227968D01*
X100911217Y-73391587D01*
X100911217Y-73558413D01*
X100878671Y-73722032D01*
X100814830Y-73876159D01*
X100722147Y-74014869D01*
X100604184Y-74132832D01*
X100465474Y-74225515D01*
X100311347Y-74289356D01*
X100147728Y-74321902D01*
X99980902Y-74321902D01*
X99817283Y-74289356D01*
X99663156Y-74225515D01*
X99524446Y-74132832D01*
X99406483Y-74014869D01*
X99313800Y-73876159D01*
X99249959Y-73722032D01*
X99217413Y-73558413D01*
X99217413Y-73391587D01*
X99249959Y-73227968D01*
X99313800Y-73073841D01*
X99406483Y-72935131D01*
X99524446Y-72817168D01*
X99663156Y-72724485D01*
X99817283Y-72660644D01*
X99980902Y-72628098D01*
X100147728Y-72628098D01*
X100311347Y-72660644D01*
G37*
G36*
X105311347Y-72660644D02*
G01*
X105465474Y-72724485D01*
X105604184Y-72817168D01*
X105722147Y-72935131D01*
X105814830Y-73073841D01*
X105878671Y-73227968D01*
X105911217Y-73391587D01*
X105911217Y-73558413D01*
X105878671Y-73722032D01*
X105814830Y-73876159D01*
X105722147Y-74014869D01*
X105604184Y-74132832D01*
X105465474Y-74225515D01*
X105311347Y-74289356D01*
X105147728Y-74321902D01*
X104980902Y-74321902D01*
X104817283Y-74289356D01*
X104663156Y-74225515D01*
X104524446Y-74132832D01*
X104406483Y-74014869D01*
X104313800Y-73876159D01*
X104249959Y-73722032D01*
X104217413Y-73558413D01*
X104217413Y-73391587D01*
X104249959Y-73227968D01*
X104313800Y-73073841D01*
X104406483Y-72935131D01*
X104524446Y-72817168D01*
X104663156Y-72724485D01*
X104817283Y-72660644D01*
X104980902Y-72628098D01*
X105147728Y-72628098D01*
X105311347Y-72660644D01*
G37*
G36*
X107931347Y-72660644D02*
G01*
X108085474Y-72724485D01*
X108224184Y-72817168D01*
X108342147Y-72935131D01*
X108434830Y-73073841D01*
X108498671Y-73227968D01*
X108531217Y-73391587D01*
X108531217Y-73558413D01*
X108498671Y-73722032D01*
X108434830Y-73876159D01*
X108342147Y-74014869D01*
X108224184Y-74132832D01*
X108085474Y-74225515D01*
X107931347Y-74289356D01*
X107767728Y-74321902D01*
X107600902Y-74321902D01*
X107437283Y-74289356D01*
X107283156Y-74225515D01*
X107144446Y-74132832D01*
X107026483Y-74014869D01*
X106933800Y-73876159D01*
X106869959Y-73722032D01*
X106837413Y-73558413D01*
X106837413Y-73391587D01*
X106869959Y-73227968D01*
X106933800Y-73073841D01*
X107026483Y-72935131D01*
X107144446Y-72817168D01*
X107283156Y-72724485D01*
X107437283Y-72660644D01*
X107600902Y-72628098D01*
X107767728Y-72628098D01*
X107931347Y-72660644D01*
G37*
G36*
X112931347Y-72660644D02*
G01*
X113085474Y-72724485D01*
X113224184Y-72817168D01*
X113342147Y-72935131D01*
X113434830Y-73073841D01*
X113498671Y-73227968D01*
X113531217Y-73391587D01*
X113531217Y-73558413D01*
X113498671Y-73722032D01*
X113434830Y-73876159D01*
X113342147Y-74014869D01*
X113224184Y-74132832D01*
X113085474Y-74225515D01*
X112931347Y-74289356D01*
X112767728Y-74321902D01*
X112600902Y-74321902D01*
X112437283Y-74289356D01*
X112283156Y-74225515D01*
X112144446Y-74132832D01*
X112026483Y-74014869D01*
X111933800Y-73876159D01*
X111869959Y-73722032D01*
X111837413Y-73558413D01*
X111837413Y-73391587D01*
X111869959Y-73227968D01*
X111933800Y-73073841D01*
X112026483Y-72935131D01*
X112144446Y-72817168D01*
X112283156Y-72724485D01*
X112437283Y-72660644D01*
X112600902Y-72628098D01*
X112767728Y-72628098D01*
X112931347Y-72660644D01*
G37*
G36*
X87969517Y-71502882D02*
G01*
X87986062Y-71513938D01*
X87997118Y-71530483D01*
X88001000Y-71550000D01*
X88001000Y-73250000D01*
X87997118Y-73269517D01*
X87986062Y-73286062D01*
X87969517Y-73297118D01*
X87950000Y-73301000D01*
X86250000Y-73301000D01*
X86230483Y-73297118D01*
X86213938Y-73286062D01*
X86202882Y-73269517D01*
X86199000Y-73250000D01*
X86199000Y-71550000D01*
X86202882Y-71530483D01*
X86213938Y-71513938D01*
X86230483Y-71502882D01*
X86250000Y-71499000D01*
X87950000Y-71499000D01*
X87969517Y-71502882D01*
G37*
G36*
X92731347Y-69485644D02*
G01*
X92885474Y-69549485D01*
X93024184Y-69642168D01*
X93142147Y-69760131D01*
X93234830Y-69898841D01*
X93298671Y-70052968D01*
X93331217Y-70216587D01*
X93331217Y-70383413D01*
X93298671Y-70547032D01*
X93234830Y-70701159D01*
X93142147Y-70839869D01*
X93024184Y-70957832D01*
X92885474Y-71050515D01*
X92731347Y-71114356D01*
X92567728Y-71146902D01*
X92400902Y-71146902D01*
X92237283Y-71114356D01*
X92083156Y-71050515D01*
X91944446Y-70957832D01*
X91826483Y-70839869D01*
X91733800Y-70701159D01*
X91669959Y-70547032D01*
X91637413Y-70383413D01*
X91637413Y-70216587D01*
X91669959Y-70052968D01*
X91733800Y-69898841D01*
X91826483Y-69760131D01*
X91944446Y-69642168D01*
X92083156Y-69549485D01*
X92237283Y-69485644D01*
X92400902Y-69453098D01*
X92567728Y-69453098D01*
X92731347Y-69485644D01*
G37*
G36*
X97731347Y-69485644D02*
G01*
X97885474Y-69549485D01*
X98024184Y-69642168D01*
X98142147Y-69760131D01*
X98234830Y-69898841D01*
X98298671Y-70052968D01*
X98331217Y-70216587D01*
X98331217Y-70383413D01*
X98298671Y-70547032D01*
X98234830Y-70701159D01*
X98142147Y-70839869D01*
X98024184Y-70957832D01*
X97885474Y-71050515D01*
X97731347Y-71114356D01*
X97567728Y-71146902D01*
X97400902Y-71146902D01*
X97237283Y-71114356D01*
X97083156Y-71050515D01*
X96944446Y-70957832D01*
X96826483Y-70839869D01*
X96733800Y-70701159D01*
X96669959Y-70547032D01*
X96637413Y-70383413D01*
X96637413Y-70216587D01*
X96669959Y-70052968D01*
X96733800Y-69898841D01*
X96826483Y-69760131D01*
X96944446Y-69642168D01*
X97083156Y-69549485D01*
X97237283Y-69485644D01*
X97400902Y-69453098D01*
X97567728Y-69453098D01*
X97731347Y-69485644D01*
G37*
G36*
X115218004Y-69421338D02*
G01*
X115354019Y-69477677D01*
X115476429Y-69559469D01*
X115580531Y-69663571D01*
X115662323Y-69785981D01*
X115718662Y-69921996D01*
X115747384Y-70066389D01*
X115747384Y-70213611D01*
X115718662Y-70358004D01*
X115662323Y-70494019D01*
X115580531Y-70616429D01*
X115476429Y-70720531D01*
X115354019Y-70802323D01*
X115218004Y-70858662D01*
X115073611Y-70887384D01*
X114926389Y-70887384D01*
X114781996Y-70858662D01*
X114645981Y-70802323D01*
X114523571Y-70720531D01*
X114419469Y-70616429D01*
X114337677Y-70494019D01*
X114281338Y-70358004D01*
X114252616Y-70213611D01*
X114252616Y-70066389D01*
X114281338Y-69921996D01*
X114337677Y-69785981D01*
X114419469Y-69663571D01*
X114523571Y-69559469D01*
X114645981Y-69477677D01*
X114781996Y-69421338D01*
X114926389Y-69392616D01*
X115073611Y-69392616D01*
X115218004Y-69421338D01*
G37*
G36*
X105301432Y-69162644D02*
G01*
X105455559Y-69226485D01*
X105594269Y-69319168D01*
X105712232Y-69437131D01*
X105804915Y-69575841D01*
X105868756Y-69729968D01*
X105901302Y-69893587D01*
X105901302Y-70060413D01*
X105868756Y-70224032D01*
X105804915Y-70378159D01*
X105712232Y-70516869D01*
X105594269Y-70634832D01*
X105455559Y-70727515D01*
X105301432Y-70791356D01*
X105137813Y-70823902D01*
X104970987Y-70823902D01*
X104807368Y-70791356D01*
X104653241Y-70727515D01*
X104514531Y-70634832D01*
X104396568Y-70516869D01*
X104303885Y-70378159D01*
X104240044Y-70224032D01*
X104207498Y-70060413D01*
X104207498Y-69893587D01*
X104240044Y-69729968D01*
X104303885Y-69575841D01*
X104396568Y-69437131D01*
X104514531Y-69319168D01*
X104653241Y-69226485D01*
X104807368Y-69162644D01*
X104970987Y-69130098D01*
X105137813Y-69130098D01*
X105301432Y-69162644D01*
G37*
G36*
X112921432Y-69162644D02*
G01*
X113075559Y-69226485D01*
X113214269Y-69319168D01*
X113332232Y-69437131D01*
X113424915Y-69575841D01*
X113488756Y-69729968D01*
X113521302Y-69893587D01*
X113521302Y-70060413D01*
X113488756Y-70224032D01*
X113424915Y-70378159D01*
X113332232Y-70516869D01*
X113214269Y-70634832D01*
X113075559Y-70727515D01*
X112921432Y-70791356D01*
X112757813Y-70823902D01*
X112590987Y-70823902D01*
X112427368Y-70791356D01*
X112273241Y-70727515D01*
X112134531Y-70634832D01*
X112016568Y-70516869D01*
X111923885Y-70378159D01*
X111860044Y-70224032D01*
X111827498Y-70060413D01*
X111827498Y-69893587D01*
X111860044Y-69729968D01*
X111923885Y-69575841D01*
X112016568Y-69437131D01*
X112134531Y-69319168D01*
X112273241Y-69226485D01*
X112427368Y-69162644D01*
X112590987Y-69130098D01*
X112757813Y-69130098D01*
X112921432Y-69162644D01*
G37*
G36*
X87361546Y-68997797D02*
G01*
X87524728Y-69065389D01*
X87671588Y-69163518D01*
X87796482Y-69288412D01*
X87894611Y-69435272D01*
X87962203Y-69598454D01*
X87996661Y-69771687D01*
X87996661Y-69948313D01*
X87962203Y-70121546D01*
X87894611Y-70284728D01*
X87796482Y-70431588D01*
X87671588Y-70556482D01*
X87524728Y-70654611D01*
X87361546Y-70722203D01*
X87188313Y-70756661D01*
X87011687Y-70756661D01*
X86838454Y-70722203D01*
X86675272Y-70654611D01*
X86528412Y-70556482D01*
X86403518Y-70431588D01*
X86305389Y-70284728D01*
X86237797Y-70121546D01*
X86203339Y-69948313D01*
X86203339Y-69771687D01*
X86237797Y-69598454D01*
X86305389Y-69435272D01*
X86403518Y-69288412D01*
X86528412Y-69163518D01*
X86675272Y-69065389D01*
X86838454Y-68997797D01*
X87011687Y-68963339D01*
X87188313Y-68963339D01*
X87361546Y-68997797D01*
G37*
G36*
X120557714Y-68168795D02*
G01*
X120573526Y-68175776D01*
X120581331Y-68177013D01*
X120613839Y-68193576D01*
X120658906Y-68213476D01*
X120737124Y-68291694D01*
X120757026Y-68336767D01*
X120773586Y-68369268D01*
X120774821Y-68377070D01*
X120781805Y-68392886D01*
X120789800Y-68461800D01*
X120789800Y-69561800D01*
X120781805Y-69630714D01*
X120774821Y-69646529D01*
X120773586Y-69654331D01*
X120757029Y-69686824D01*
X120737124Y-69731906D01*
X120658906Y-69810124D01*
X120613824Y-69830029D01*
X120581331Y-69846586D01*
X120573529Y-69847821D01*
X120557714Y-69854805D01*
X120488800Y-69862800D01*
X119388800Y-69862800D01*
X119319886Y-69854805D01*
X119304070Y-69847821D01*
X119296268Y-69846586D01*
X119263767Y-69830026D01*
X119218694Y-69810124D01*
X119140476Y-69731906D01*
X119120576Y-69686839D01*
X119104013Y-69654331D01*
X119102776Y-69646526D01*
X119095795Y-69630714D01*
X119087800Y-69561800D01*
X119087800Y-68461800D01*
X119095795Y-68392886D01*
X119102776Y-68377074D01*
X119104013Y-68369268D01*
X119120580Y-68336753D01*
X119140476Y-68291694D01*
X119218694Y-68213476D01*
X119263753Y-68193580D01*
X119296268Y-68177013D01*
X119304074Y-68175776D01*
X119319886Y-68168795D01*
X119388800Y-68160800D01*
X120488800Y-68160800D01*
X120557714Y-68168795D01*
G37*
G36*
X118185832Y-68197444D02*
G01*
X118339959Y-68261285D01*
X118478669Y-68353968D01*
X118596632Y-68471931D01*
X118689315Y-68610641D01*
X118753156Y-68764768D01*
X118785702Y-68928387D01*
X118785702Y-69095213D01*
X118753156Y-69258832D01*
X118689315Y-69412959D01*
X118596632Y-69551669D01*
X118478669Y-69669632D01*
X118339959Y-69762315D01*
X118185832Y-69826156D01*
X118022213Y-69858702D01*
X117855387Y-69858702D01*
X117691768Y-69826156D01*
X117537641Y-69762315D01*
X117398931Y-69669632D01*
X117280968Y-69551669D01*
X117188285Y-69412959D01*
X117124444Y-69258832D01*
X117091898Y-69095213D01*
X117091898Y-68928387D01*
X117124444Y-68764768D01*
X117188285Y-68610641D01*
X117280968Y-68471931D01*
X117398931Y-68353968D01*
X117537641Y-68261285D01*
X117691768Y-68197444D01*
X117855387Y-68164898D01*
X118022213Y-68164898D01*
X118185832Y-68197444D01*
G37*
G36*
X115218004Y-66881338D02*
G01*
X115354019Y-66937677D01*
X115476429Y-67019469D01*
X115580531Y-67123571D01*
X115662323Y-67245981D01*
X115718662Y-67381996D01*
X115747384Y-67526389D01*
X115747384Y-67673611D01*
X115718662Y-67818004D01*
X115662323Y-67954019D01*
X115580531Y-68076429D01*
X115476429Y-68180531D01*
X115354019Y-68262323D01*
X115218004Y-68318662D01*
X115073611Y-68347384D01*
X114926389Y-68347384D01*
X114781996Y-68318662D01*
X114645981Y-68262323D01*
X114523571Y-68180531D01*
X114419469Y-68076429D01*
X114337677Y-67954019D01*
X114281338Y-67818004D01*
X114252616Y-67673611D01*
X114252616Y-67526389D01*
X114281338Y-67381996D01*
X114337677Y-67245981D01*
X114419469Y-67123571D01*
X114523571Y-67019469D01*
X114645981Y-66937677D01*
X114781996Y-66881338D01*
X114926389Y-66852616D01*
X115073611Y-66852616D01*
X115218004Y-66881338D01*
G37*
G36*
X105301432Y-66622644D02*
G01*
X105455559Y-66686485D01*
X105594269Y-66779168D01*
X105712232Y-66897131D01*
X105804915Y-67035841D01*
X105868756Y-67189968D01*
X105901302Y-67353587D01*
X105901302Y-67520413D01*
X105868756Y-67684032D01*
X105804915Y-67838159D01*
X105712232Y-67976869D01*
X105594269Y-68094832D01*
X105455559Y-68187515D01*
X105301432Y-68251356D01*
X105137813Y-68283902D01*
X104970987Y-68283902D01*
X104807368Y-68251356D01*
X104653241Y-68187515D01*
X104514531Y-68094832D01*
X104396568Y-67976869D01*
X104303885Y-67838159D01*
X104240044Y-67684032D01*
X104207498Y-67520413D01*
X104207498Y-67353587D01*
X104240044Y-67189968D01*
X104303885Y-67035841D01*
X104396568Y-66897131D01*
X104514531Y-66779168D01*
X104653241Y-66686485D01*
X104807368Y-66622644D01*
X104970987Y-66590098D01*
X105137813Y-66590098D01*
X105301432Y-66622644D01*
G37*
G36*
X112921432Y-66622644D02*
G01*
X113075559Y-66686485D01*
X113214269Y-66779168D01*
X113332232Y-66897131D01*
X113424915Y-67035841D01*
X113488756Y-67189968D01*
X113521302Y-67353587D01*
X113521302Y-67520413D01*
X113488756Y-67684032D01*
X113424915Y-67838159D01*
X113332232Y-67976869D01*
X113214269Y-68094832D01*
X113075559Y-68187515D01*
X112921432Y-68251356D01*
X112757813Y-68283902D01*
X112590987Y-68283902D01*
X112427368Y-68251356D01*
X112273241Y-68187515D01*
X112134531Y-68094832D01*
X112016568Y-67976869D01*
X111923885Y-67838159D01*
X111860044Y-67684032D01*
X111827498Y-67520413D01*
X111827498Y-67353587D01*
X111860044Y-67189968D01*
X111923885Y-67035841D01*
X112016568Y-66897131D01*
X112134531Y-66779168D01*
X112273241Y-66686485D01*
X112427368Y-66622644D01*
X112590987Y-66590098D01*
X112757813Y-66590098D01*
X112921432Y-66622644D01*
G37*
G36*
X87361546Y-66457797D02*
G01*
X87524728Y-66525389D01*
X87671588Y-66623518D01*
X87796482Y-66748412D01*
X87894611Y-66895272D01*
X87962203Y-67058454D01*
X87996661Y-67231687D01*
X87996661Y-67408313D01*
X87962203Y-67581546D01*
X87894611Y-67744728D01*
X87796482Y-67891588D01*
X87671588Y-68016482D01*
X87524728Y-68114611D01*
X87361546Y-68182203D01*
X87188313Y-68216661D01*
X87011687Y-68216661D01*
X86838454Y-68182203D01*
X86675272Y-68114611D01*
X86528412Y-68016482D01*
X86403518Y-67891588D01*
X86305389Y-67744728D01*
X86237797Y-67581546D01*
X86203339Y-67408313D01*
X86203339Y-67231687D01*
X86237797Y-67058454D01*
X86305389Y-66895272D01*
X86403518Y-66748412D01*
X86528412Y-66623518D01*
X86675272Y-66525389D01*
X86838454Y-66457797D01*
X87011687Y-66423339D01*
X87188313Y-66423339D01*
X87361546Y-66457797D01*
G37*
G36*
X92804632Y-66368644D02*
G01*
X92958759Y-66432485D01*
X93097469Y-66525168D01*
X93215432Y-66643131D01*
X93308115Y-66781841D01*
X93371956Y-66935968D01*
X93404502Y-67099587D01*
X93404502Y-67266413D01*
X93371956Y-67430032D01*
X93308115Y-67584159D01*
X93215432Y-67722869D01*
X93097469Y-67840832D01*
X92958759Y-67933515D01*
X92804632Y-67997356D01*
X92641013Y-68029902D01*
X92474187Y-68029902D01*
X92310568Y-67997356D01*
X92156441Y-67933515D01*
X92017731Y-67840832D01*
X91899768Y-67722869D01*
X91807085Y-67584159D01*
X91743244Y-67430032D01*
X91710698Y-67266413D01*
X91710698Y-67099587D01*
X91743244Y-66935968D01*
X91807085Y-66781841D01*
X91899768Y-66643131D01*
X92017731Y-66525168D01*
X92156441Y-66432485D01*
X92310568Y-66368644D01*
X92474187Y-66336098D01*
X92641013Y-66336098D01*
X92804632Y-66368644D01*
G37*
G36*
X102964632Y-66368644D02*
G01*
X103118759Y-66432485D01*
X103257469Y-66525168D01*
X103375432Y-66643131D01*
X103468115Y-66781841D01*
X103531956Y-66935968D01*
X103564502Y-67099587D01*
X103564502Y-67266413D01*
X103531956Y-67430032D01*
X103468115Y-67584159D01*
X103375432Y-67722869D01*
X103257469Y-67840832D01*
X103118759Y-67933515D01*
X102964632Y-67997356D01*
X102801013Y-68029902D01*
X102634187Y-68029902D01*
X102470568Y-67997356D01*
X102316441Y-67933515D01*
X102177731Y-67840832D01*
X102059768Y-67722869D01*
X101967085Y-67584159D01*
X101903244Y-67430032D01*
X101870698Y-67266413D01*
X101870698Y-67099587D01*
X101903244Y-66935968D01*
X101967085Y-66781841D01*
X102059768Y-66643131D01*
X102177731Y-66525168D01*
X102316441Y-66432485D01*
X102470568Y-66368644D01*
X102634187Y-66336098D01*
X102801013Y-66336098D01*
X102964632Y-66368644D01*
G37*
G36*
X105301432Y-64082644D02*
G01*
X105455559Y-64146485D01*
X105594269Y-64239168D01*
X105712232Y-64357131D01*
X105804915Y-64495841D01*
X105868756Y-64649968D01*
X105901302Y-64813587D01*
X105901302Y-64980413D01*
X105868756Y-65144032D01*
X105804915Y-65298159D01*
X105712232Y-65436869D01*
X105594269Y-65554832D01*
X105455559Y-65647515D01*
X105301432Y-65711356D01*
X105137813Y-65743902D01*
X104970987Y-65743902D01*
X104807368Y-65711356D01*
X104653241Y-65647515D01*
X104514531Y-65554832D01*
X104396568Y-65436869D01*
X104303885Y-65298159D01*
X104240044Y-65144032D01*
X104207498Y-64980413D01*
X104207498Y-64813587D01*
X104240044Y-64649968D01*
X104303885Y-64495841D01*
X104396568Y-64357131D01*
X104514531Y-64239168D01*
X104653241Y-64146485D01*
X104807368Y-64082644D01*
X104970987Y-64050098D01*
X105137813Y-64050098D01*
X105301432Y-64082644D01*
G37*
G36*
X112921432Y-64082644D02*
G01*
X113075559Y-64146485D01*
X113214269Y-64239168D01*
X113332232Y-64357131D01*
X113424915Y-64495841D01*
X113488756Y-64649968D01*
X113521302Y-64813587D01*
X113521302Y-64980413D01*
X113488756Y-65144032D01*
X113424915Y-65298159D01*
X113332232Y-65436869D01*
X113214269Y-65554832D01*
X113075559Y-65647515D01*
X112921432Y-65711356D01*
X112757813Y-65743902D01*
X112590987Y-65743902D01*
X112427368Y-65711356D01*
X112273241Y-65647515D01*
X112134531Y-65554832D01*
X112016568Y-65436869D01*
X111923885Y-65298159D01*
X111860044Y-65144032D01*
X111827498Y-64980413D01*
X111827498Y-64813587D01*
X111860044Y-64649968D01*
X111923885Y-64495841D01*
X112016568Y-64357131D01*
X112134531Y-64239168D01*
X112273241Y-64146485D01*
X112427368Y-64082644D01*
X112590987Y-64050098D01*
X112757813Y-64050098D01*
X112921432Y-64082644D01*
G37*
G36*
X87361546Y-63917797D02*
G01*
X87524728Y-63985389D01*
X87671588Y-64083518D01*
X87796482Y-64208412D01*
X87894611Y-64355272D01*
X87962203Y-64518454D01*
X87996661Y-64691687D01*
X87996661Y-64868313D01*
X87962203Y-65041546D01*
X87894611Y-65204728D01*
X87796482Y-65351588D01*
X87671588Y-65476482D01*
X87524728Y-65574611D01*
X87361546Y-65642203D01*
X87188313Y-65676661D01*
X87011687Y-65676661D01*
X86838454Y-65642203D01*
X86675272Y-65574611D01*
X86528412Y-65476482D01*
X86403518Y-65351588D01*
X86305389Y-65204728D01*
X86237797Y-65041546D01*
X86203339Y-64868313D01*
X86203339Y-64691687D01*
X86237797Y-64518454D01*
X86305389Y-64355272D01*
X86403518Y-64208412D01*
X86528412Y-64083518D01*
X86675272Y-63985389D01*
X86838454Y-63917797D01*
X87011687Y-63883339D01*
X87188313Y-63883339D01*
X87361546Y-63917797D01*
G37*
G36*
X92804632Y-63193644D02*
G01*
X92958759Y-63257485D01*
X93097469Y-63350168D01*
X93215432Y-63468131D01*
X93308115Y-63606841D01*
X93371956Y-63760968D01*
X93404502Y-63924587D01*
X93404502Y-64091413D01*
X93371956Y-64255032D01*
X93308115Y-64409159D01*
X93215432Y-64547869D01*
X93097469Y-64665832D01*
X92958759Y-64758515D01*
X92804632Y-64822356D01*
X92641013Y-64854902D01*
X92474187Y-64854902D01*
X92310568Y-64822356D01*
X92156441Y-64758515D01*
X92017731Y-64665832D01*
X91899768Y-64547869D01*
X91807085Y-64409159D01*
X91743244Y-64255032D01*
X91710698Y-64091413D01*
X91710698Y-63924587D01*
X91743244Y-63760968D01*
X91807085Y-63606841D01*
X91899768Y-63468131D01*
X92017731Y-63350168D01*
X92156441Y-63257485D01*
X92310568Y-63193644D01*
X92474187Y-63161098D01*
X92641013Y-63161098D01*
X92804632Y-63193644D01*
G37*
G36*
X102964632Y-63193644D02*
G01*
X103118759Y-63257485D01*
X103257469Y-63350168D01*
X103375432Y-63468131D01*
X103468115Y-63606841D01*
X103531956Y-63760968D01*
X103564502Y-63924587D01*
X103564502Y-64091413D01*
X103531956Y-64255032D01*
X103468115Y-64409159D01*
X103375432Y-64547869D01*
X103257469Y-64665832D01*
X103118759Y-64758515D01*
X102964632Y-64822356D01*
X102801013Y-64854902D01*
X102634187Y-64854902D01*
X102470568Y-64822356D01*
X102316441Y-64758515D01*
X102177731Y-64665832D01*
X102059768Y-64547869D01*
X101967085Y-64409159D01*
X101903244Y-64255032D01*
X101870698Y-64091413D01*
X101870698Y-63924587D01*
X101903244Y-63760968D01*
X101967085Y-63606841D01*
X102059768Y-63468131D01*
X102177731Y-63350168D01*
X102316441Y-63257485D01*
X102470568Y-63193644D01*
X102634187Y-63161098D01*
X102801013Y-63161098D01*
X102964632Y-63193644D01*
G37*
G36*
X105873917Y-61509882D02*
G01*
X105890462Y-61520938D01*
X105901518Y-61537483D01*
X105905400Y-61557000D01*
X105905400Y-63157000D01*
X105901518Y-63176517D01*
X105890462Y-63193062D01*
X105873917Y-63204118D01*
X105854400Y-63208000D01*
X104254400Y-63208000D01*
X104234883Y-63204118D01*
X104218338Y-63193062D01*
X104207282Y-63176517D01*
X104203400Y-63157000D01*
X104203400Y-61557000D01*
X104207282Y-61537483D01*
X104218338Y-61520938D01*
X104234883Y-61509882D01*
X104254400Y-61506000D01*
X105854400Y-61506000D01*
X105873917Y-61509882D01*
G37*
G36*
X112921432Y-61542644D02*
G01*
X113075559Y-61606485D01*
X113214269Y-61699168D01*
X113332232Y-61817131D01*
X113424915Y-61955841D01*
X113488756Y-62109968D01*
X113521302Y-62273587D01*
X113521302Y-62440413D01*
X113488756Y-62604032D01*
X113424915Y-62758159D01*
X113332232Y-62896869D01*
X113214269Y-63014832D01*
X113075559Y-63107515D01*
X112921432Y-63171356D01*
X112757813Y-63203902D01*
X112590987Y-63203902D01*
X112427368Y-63171356D01*
X112273241Y-63107515D01*
X112134531Y-63014832D01*
X112016568Y-62896869D01*
X111923885Y-62758159D01*
X111860044Y-62604032D01*
X111827498Y-62440413D01*
X111827498Y-62273587D01*
X111860044Y-62109968D01*
X111923885Y-61955841D01*
X112016568Y-61817131D01*
X112134531Y-61699168D01*
X112273241Y-61606485D01*
X112427368Y-61542644D01*
X112590987Y-61510098D01*
X112757813Y-61510098D01*
X112921432Y-61542644D01*
G37*
G36*
X87361546Y-61377797D02*
G01*
X87524728Y-61445389D01*
X87671588Y-61543518D01*
X87796482Y-61668412D01*
X87894611Y-61815272D01*
X87962203Y-61978454D01*
X87996661Y-62151687D01*
X87996661Y-62328313D01*
X87962203Y-62501546D01*
X87894611Y-62664728D01*
X87796482Y-62811588D01*
X87671588Y-62936482D01*
X87524728Y-63034611D01*
X87361546Y-63102203D01*
X87188313Y-63136661D01*
X87011687Y-63136661D01*
X86838454Y-63102203D01*
X86675272Y-63034611D01*
X86528412Y-62936482D01*
X86403518Y-62811588D01*
X86305389Y-62664728D01*
X86237797Y-62501546D01*
X86203339Y-62328313D01*
X86203339Y-62151687D01*
X86237797Y-61978454D01*
X86305389Y-61815272D01*
X86403518Y-61668412D01*
X86528412Y-61543518D01*
X86675272Y-61445389D01*
X86838454Y-61377797D01*
X87011687Y-61343339D01*
X87188313Y-61343339D01*
X87361546Y-61377797D01*
G37*
G36*
X94248804Y-60520738D02*
G01*
X94384819Y-60577077D01*
X94507229Y-60658869D01*
X94611331Y-60762971D01*
X94693123Y-60885381D01*
X94749462Y-61021396D01*
X94778184Y-61165789D01*
X94778184Y-61313011D01*
X94749462Y-61457404D01*
X94693123Y-61593419D01*
X94611331Y-61715829D01*
X94507229Y-61819931D01*
X94384819Y-61901723D01*
X94248804Y-61958062D01*
X94104411Y-61986784D01*
X93957189Y-61986784D01*
X93812796Y-61958062D01*
X93676781Y-61901723D01*
X93554371Y-61819931D01*
X93450269Y-61715829D01*
X93368477Y-61593419D01*
X93312138Y-61457404D01*
X93283416Y-61313011D01*
X93283416Y-61165789D01*
X93312138Y-61021396D01*
X93368477Y-60885381D01*
X93450269Y-60762971D01*
X93554371Y-60658869D01*
X93676781Y-60577077D01*
X93812796Y-60520738D01*
X93957189Y-60492016D01*
X94104411Y-60492016D01*
X94248804Y-60520738D01*
G37*
G36*
X96788804Y-60520738D02*
G01*
X96924819Y-60577077D01*
X97047229Y-60658869D01*
X97151331Y-60762971D01*
X97233123Y-60885381D01*
X97289462Y-61021396D01*
X97318184Y-61165789D01*
X97318184Y-61313011D01*
X97289462Y-61457404D01*
X97233123Y-61593419D01*
X97151331Y-61715829D01*
X97047229Y-61819931D01*
X96924819Y-61901723D01*
X96788804Y-61958062D01*
X96644411Y-61986784D01*
X96497189Y-61986784D01*
X96352796Y-61958062D01*
X96216781Y-61901723D01*
X96094371Y-61819931D01*
X95990269Y-61715829D01*
X95908477Y-61593419D01*
X95852138Y-61457404D01*
X95823416Y-61313011D01*
X95823416Y-61165789D01*
X95852138Y-61021396D01*
X95908477Y-60885381D01*
X95990269Y-60762971D01*
X96094371Y-60658869D01*
X96216781Y-60577077D01*
X96352796Y-60520738D01*
X96497189Y-60492016D01*
X96644411Y-60492016D01*
X96788804Y-60520738D01*
G37*
G36*
X125755717Y-58696882D02*
G01*
X125772262Y-58707938D01*
X125783318Y-58724483D01*
X125787200Y-58744000D01*
X125787200Y-61144000D01*
X125783318Y-61163517D01*
X125772262Y-61180062D01*
X125755717Y-61191118D01*
X125736200Y-61195000D01*
X123336200Y-61195000D01*
X123316683Y-61191118D01*
X123300138Y-61180062D01*
X123289082Y-61163517D01*
X123285200Y-61144000D01*
X123285200Y-58744000D01*
X123289082Y-58724483D01*
X123300138Y-58707938D01*
X123316683Y-58696882D01*
X123336200Y-58693000D01*
X125736200Y-58693000D01*
X125755717Y-58696882D01*
G37*
G36*
X119828240Y-58727565D02*
G01*
X120014937Y-58788227D01*
X120189846Y-58877347D01*
X120348660Y-58992732D01*
X120487468Y-59131540D01*
X120602853Y-59290354D01*
X120691973Y-59465263D01*
X120752635Y-59651960D01*
X120783344Y-59845848D01*
X120783344Y-60042152D01*
X120752635Y-60236040D01*
X120691973Y-60422737D01*
X120602853Y-60597646D01*
X120487468Y-60756460D01*
X120348660Y-60895268D01*
X120189846Y-61010653D01*
X120014937Y-61099773D01*
X119828240Y-61160435D01*
X119634352Y-61191144D01*
X119438048Y-61191144D01*
X119244160Y-61160435D01*
X119057463Y-61099773D01*
X118882554Y-61010653D01*
X118723740Y-60895268D01*
X118584932Y-60756460D01*
X118469547Y-60597646D01*
X118380427Y-60422737D01*
X118319765Y-60236040D01*
X118289056Y-60042152D01*
X118289056Y-59845848D01*
X118319765Y-59651960D01*
X118380427Y-59465263D01*
X118469547Y-59290354D01*
X118584932Y-59131540D01*
X118723740Y-58992732D01*
X118882554Y-58877347D01*
X119057463Y-58788227D01*
X119244160Y-58727565D01*
X119438048Y-58696856D01*
X119634352Y-58696856D01*
X119828240Y-58727565D01*
G37*
G36*
X87361546Y-58837797D02*
G01*
X87524728Y-58905389D01*
X87671588Y-59003518D01*
X87796482Y-59128412D01*
X87894611Y-59275272D01*
X87962203Y-59438454D01*
X87996661Y-59611687D01*
X87996661Y-59788313D01*
X87962203Y-59961546D01*
X87894611Y-60124728D01*
X87796482Y-60271588D01*
X87671588Y-60396482D01*
X87524728Y-60494611D01*
X87361546Y-60562203D01*
X87188313Y-60596661D01*
X87011687Y-60596661D01*
X86838454Y-60562203D01*
X86675272Y-60494611D01*
X86528412Y-60396482D01*
X86403518Y-60271588D01*
X86305389Y-60124728D01*
X86237797Y-59961546D01*
X86203339Y-59788313D01*
X86203339Y-59611687D01*
X86237797Y-59438454D01*
X86305389Y-59275272D01*
X86403518Y-59128412D01*
X86528412Y-59003518D01*
X86675272Y-58905389D01*
X86838454Y-58837797D01*
X87011687Y-58803339D01*
X87188313Y-58803339D01*
X87361546Y-58837797D01*
G37*
G36*
X103094117Y-59031882D02*
G01*
X103110662Y-59042938D01*
X103121718Y-59059483D01*
X103125600Y-59079000D01*
X103125600Y-60301000D01*
X103121718Y-60320517D01*
X103110662Y-60337062D01*
X103094117Y-60348118D01*
X103074600Y-60352000D01*
X101852600Y-60352000D01*
X101833083Y-60348118D01*
X101816538Y-60337062D01*
X101805482Y-60320517D01*
X101801600Y-60301000D01*
X101801600Y-59079000D01*
X101805482Y-59059483D01*
X101816538Y-59042938D01*
X101833083Y-59031882D01*
X101852600Y-59028000D01*
X103074600Y-59028000D01*
X103094117Y-59031882D01*
G37*
G36*
X107972232Y-57377044D02*
G01*
X108126359Y-57440885D01*
X108265069Y-57533568D01*
X108383032Y-57651531D01*
X108475715Y-57790241D01*
X108539556Y-57944368D01*
X108572102Y-58107987D01*
X108572102Y-58274813D01*
X108539556Y-58438432D01*
X108475715Y-58592559D01*
X108383032Y-58731269D01*
X108265069Y-58849232D01*
X108126359Y-58941915D01*
X107972232Y-59005756D01*
X107808613Y-59038302D01*
X107641787Y-59038302D01*
X107478168Y-59005756D01*
X107324041Y-58941915D01*
X107185331Y-58849232D01*
X107067368Y-58731269D01*
X106974685Y-58592559D01*
X106910844Y-58438432D01*
X106878298Y-58274813D01*
X106878298Y-58107987D01*
X106910844Y-57944368D01*
X106974685Y-57790241D01*
X107067368Y-57651531D01*
X107185331Y-57533568D01*
X107324041Y-57440885D01*
X107478168Y-57377044D01*
X107641787Y-57344498D01*
X107808613Y-57344498D01*
X107972232Y-57377044D01*
G37*
G36*
X112972232Y-57377044D02*
G01*
X113126359Y-57440885D01*
X113265069Y-57533568D01*
X113383032Y-57651531D01*
X113475715Y-57790241D01*
X113539556Y-57944368D01*
X113572102Y-58107987D01*
X113572102Y-58274813D01*
X113539556Y-58438432D01*
X113475715Y-58592559D01*
X113383032Y-58731269D01*
X113265069Y-58849232D01*
X113126359Y-58941915D01*
X112972232Y-59005756D01*
X112808613Y-59038302D01*
X112641787Y-59038302D01*
X112478168Y-59005756D01*
X112324041Y-58941915D01*
X112185331Y-58849232D01*
X112067368Y-58731269D01*
X111974685Y-58592559D01*
X111910844Y-58438432D01*
X111878298Y-58274813D01*
X111878298Y-58107987D01*
X111910844Y-57944368D01*
X111974685Y-57790241D01*
X112067368Y-57651531D01*
X112185331Y-57533568D01*
X112324041Y-57440885D01*
X112478168Y-57377044D01*
X112641787Y-57344498D01*
X112808613Y-57344498D01*
X112972232Y-57377044D01*
G37*
G36*
X87361546Y-56297797D02*
G01*
X87524728Y-56365389D01*
X87671588Y-56463518D01*
X87796482Y-56588412D01*
X87894611Y-56735272D01*
X87962203Y-56898454D01*
X87996661Y-57071687D01*
X87996661Y-57248313D01*
X87962203Y-57421546D01*
X87894611Y-57584728D01*
X87796482Y-57731588D01*
X87671588Y-57856482D01*
X87524728Y-57954611D01*
X87361546Y-58022203D01*
X87188313Y-58056661D01*
X87011687Y-58056661D01*
X86838454Y-58022203D01*
X86675272Y-57954611D01*
X86528412Y-57856482D01*
X86403518Y-57731588D01*
X86305389Y-57584728D01*
X86237797Y-57421546D01*
X86203339Y-57248313D01*
X86203339Y-57071687D01*
X86237797Y-56898454D01*
X86305389Y-56735272D01*
X86403518Y-56588412D01*
X86528412Y-56463518D01*
X86675272Y-56365389D01*
X86838454Y-56297797D01*
X87011687Y-56263339D01*
X87188313Y-56263339D01*
X87361546Y-56297797D01*
G37*
G36*
X100115768Y-56516505D02*
G01*
X100235665Y-56566168D01*
X100343568Y-56638267D01*
X100435333Y-56730032D01*
X100507432Y-56837935D01*
X100557095Y-56957832D01*
X100582412Y-57085113D01*
X100582412Y-57214887D01*
X100557095Y-57342168D01*
X100507432Y-57462065D01*
X100435333Y-57569968D01*
X100343568Y-57661733D01*
X100235665Y-57733832D01*
X100115768Y-57783495D01*
X99988487Y-57808812D01*
X99858713Y-57808812D01*
X99731432Y-57783495D01*
X99611535Y-57733832D01*
X99503632Y-57661733D01*
X99411867Y-57569968D01*
X99339768Y-57462065D01*
X99290105Y-57342168D01*
X99264788Y-57214887D01*
X99264788Y-57085113D01*
X99290105Y-56957832D01*
X99339768Y-56837935D01*
X99411867Y-56730032D01*
X99503632Y-56638267D01*
X99611535Y-56566168D01*
X99731432Y-56516505D01*
X99858713Y-56491188D01*
X99988487Y-56491188D01*
X100115768Y-56516505D01*
G37*
G36*
X96783314Y-55290995D02*
G01*
X96799126Y-55297976D01*
X96806931Y-55299213D01*
X96839439Y-55315776D01*
X96884506Y-55335676D01*
X96962724Y-55413894D01*
X96982626Y-55458967D01*
X96999186Y-55491468D01*
X97000421Y-55499270D01*
X97007405Y-55515086D01*
X97015400Y-55584000D01*
X97015400Y-56684000D01*
X97007405Y-56752914D01*
X97000421Y-56768729D01*
X96999186Y-56776531D01*
X96982629Y-56809024D01*
X96962724Y-56854106D01*
X96884506Y-56932324D01*
X96839424Y-56952229D01*
X96806931Y-56968786D01*
X96799129Y-56970021D01*
X96783314Y-56977005D01*
X96714400Y-56985000D01*
X95614400Y-56985000D01*
X95545486Y-56977005D01*
X95529670Y-56970021D01*
X95521868Y-56968786D01*
X95489367Y-56952226D01*
X95444294Y-56932324D01*
X95366076Y-56854106D01*
X95346176Y-56809039D01*
X95329613Y-56776531D01*
X95328376Y-56768726D01*
X95321395Y-56752914D01*
X95313400Y-56684000D01*
X95313400Y-55584000D01*
X95321395Y-55515086D01*
X95328376Y-55499274D01*
X95329613Y-55491468D01*
X95346180Y-55458953D01*
X95366076Y-55413894D01*
X95444294Y-55335676D01*
X95489353Y-55315780D01*
X95521868Y-55299213D01*
X95529674Y-55297976D01*
X95545486Y-55290995D01*
X95614400Y-55283000D01*
X96714400Y-55283000D01*
X96783314Y-55290995D01*
G37*
G36*
X94411432Y-55319644D02*
G01*
X94565559Y-55383485D01*
X94704269Y-55476168D01*
X94822232Y-55594131D01*
X94914915Y-55732841D01*
X94978756Y-55886968D01*
X95011302Y-56050587D01*
X95011302Y-56217413D01*
X94978756Y-56381032D01*
X94914915Y-56535159D01*
X94822232Y-56673869D01*
X94704269Y-56791832D01*
X94565559Y-56884515D01*
X94411432Y-56948356D01*
X94247813Y-56980902D01*
X94080987Y-56980902D01*
X93917368Y-56948356D01*
X93763241Y-56884515D01*
X93624531Y-56791832D01*
X93506568Y-56673869D01*
X93413885Y-56535159D01*
X93350044Y-56381032D01*
X93317498Y-56217413D01*
X93317498Y-56050587D01*
X93350044Y-55886968D01*
X93413885Y-55732841D01*
X93506568Y-55594131D01*
X93624531Y-55476168D01*
X93763241Y-55383485D01*
X93917368Y-55319644D01*
X94080987Y-55287098D01*
X94247813Y-55287098D01*
X94411432Y-55319644D01*
G37*
G36*
X108425632Y-54245644D02*
G01*
X108579759Y-54309485D01*
X108718469Y-54402168D01*
X108836432Y-54520131D01*
X108929115Y-54658841D01*
X108992956Y-54812968D01*
X109025502Y-54976587D01*
X109025502Y-55143413D01*
X108992956Y-55307032D01*
X108929115Y-55461159D01*
X108836432Y-55599869D01*
X108718469Y-55717832D01*
X108579759Y-55810515D01*
X108425632Y-55874356D01*
X108262013Y-55906902D01*
X108095187Y-55906902D01*
X107931568Y-55874356D01*
X107777441Y-55810515D01*
X107638731Y-55717832D01*
X107520768Y-55599869D01*
X107428085Y-55461159D01*
X107364244Y-55307032D01*
X107331698Y-55143413D01*
X107331698Y-54976587D01*
X107364244Y-54812968D01*
X107428085Y-54658841D01*
X107520768Y-54520131D01*
X107638731Y-54402168D01*
X107777441Y-54309485D01*
X107931568Y-54245644D01*
X108095187Y-54213098D01*
X108262013Y-54213098D01*
X108425632Y-54245644D01*
G37*
G36*
X110965632Y-54245644D02*
G01*
X111119759Y-54309485D01*
X111258469Y-54402168D01*
X111376432Y-54520131D01*
X111469115Y-54658841D01*
X111532956Y-54812968D01*
X111565502Y-54976587D01*
X111565502Y-55143413D01*
X111532956Y-55307032D01*
X111469115Y-55461159D01*
X111376432Y-55599869D01*
X111258469Y-55717832D01*
X111119759Y-55810515D01*
X110965632Y-55874356D01*
X110802013Y-55906902D01*
X110635187Y-55906902D01*
X110471568Y-55874356D01*
X110317441Y-55810515D01*
X110178731Y-55717832D01*
X110060768Y-55599869D01*
X109968085Y-55461159D01*
X109904244Y-55307032D01*
X109871698Y-55143413D01*
X109871698Y-54976587D01*
X109904244Y-54812968D01*
X109968085Y-54658841D01*
X110060768Y-54520131D01*
X110178731Y-54402168D01*
X110317441Y-54309485D01*
X110471568Y-54245644D01*
X110635187Y-54213098D01*
X110802013Y-54213098D01*
X110965632Y-54245644D01*
G37*
G36*
X102655768Y-53976505D02*
G01*
X102775665Y-54026168D01*
X102883568Y-54098267D01*
X102975333Y-54190032D01*
X103047432Y-54297935D01*
X103097095Y-54417832D01*
X103122412Y-54545113D01*
X103122412Y-54674887D01*
X103097095Y-54802168D01*
X103047432Y-54922065D01*
X102975333Y-55029968D01*
X102883568Y-55121733D01*
X102775665Y-55193832D01*
X102655768Y-55243495D01*
X102528487Y-55268812D01*
X102398713Y-55268812D01*
X102271432Y-55243495D01*
X102151535Y-55193832D01*
X102043632Y-55121733D01*
X101951867Y-55029968D01*
X101879768Y-54922065D01*
X101830105Y-54802168D01*
X101804788Y-54674887D01*
X101804788Y-54545113D01*
X101830105Y-54417832D01*
X101879768Y-54297935D01*
X101951867Y-54190032D01*
X102043632Y-54098267D01*
X102151535Y-54026168D01*
X102271432Y-53976505D01*
X102398713Y-53951188D01*
X102528487Y-53951188D01*
X102655768Y-53976505D01*
G37*
M02*
